<?xml version="1.0" encoding="UTF-8" standalone="no"?>
<svg
   xmlns:osb="http://www.openswatchbook.org/uri/2009/osb"
   xmlns:dc="http://purl.org/dc/elements/1.1/"
   xmlns:cc="http://creativecommons.org/ns#"
   xmlns:rdf="http://www.w3.org/1999/02/22-rdf-syntax-ns#"
   xmlns:svg="http://www.w3.org/2000/svg"
   xmlns="http://www.w3.org/2000/svg"
   xmlns:xlink="http://www.w3.org/1999/xlink"
   width="45.546486mm"
   viewBox="0 0 45.546488 45.546295"
   version="1.1"
   id="svg169"
   height="45.546486mm">
  <metadata
     id="metadata173">
    <rdf:RDF>
      <cc:Work
         rdf:about="">
        <dc:format>image/svg+xml</dc:format>
        <dc:type
           rdf:resource="http://purl.org/dc/dcmitype/StillImage" />
        <dc:title />
      </cc:Work>
    </rdf:RDF>
  </metadata>
  <defs
     id="defs31">
    <linearGradient
       osb:paint="solid"
       id="linearGradient6999">
      <stop
         style="stop-color:#000000;stop-opacity:1;"
         offset="0"
         id="stop6997" />
    </linearGradient>
    <linearGradient
       osb:paint="solid"
       id="linearGradient6985">
      <stop
         style="stop-color:#ade300;stop-opacity:1;"
         offset="0"
         id="stop6983" />
    </linearGradient>
    <linearGradient
       osb:paint="solid"
       id="secondary-main-color-4">
      <stop
         style="stop-color:#a2de40;stop-opacity:1;"
         offset="0"
         id="stop5534" />
    </linearGradient>
    <linearGradient
       osb:paint="solid"
       id="card-back-dark-color-7">
      <stop
         style="stop-color:#9d9d9d;stop-opacity:1;"
         offset="0"
         id="stop6178" />
    </linearGradient>
    <linearGradient
       osb:paint="solid"
       id="background-dark-color-6">
      <stop
         style="stop-color:#6d6d6d;stop-opacity:1;"
         offset="0"
         id="stop6170" />
    </linearGradient>
    <linearGradient
       osb:paint="solid"
       id="sub-text-dark-color-3">
      <stop
         style="stop-color:#ffffff;stop-opacity:1;"
         offset="0"
         id="stop6164" />
    </linearGradient>
    <linearGradient
       osb:paint="solid"
       id="sub-text-color"
       gradientTransform="translate(28.403634,118.45543)">
      <stop
         stop-color="#565656"
         offset="0"
         id="stop2" />
    </linearGradient>
    <linearGradient
       osb:paint="solid"
       id="background-color"
       gradientTransform="rotate(180,-20.724674,-11.6405)">
      <stop
         stop-color="#565656"
         offset="0"
         id="stop5" />
    </linearGradient>
    <linearGradient
       osb:paint="solid"
       id="card-back-color"
       gradientTransform="translate(28.403634,118.45543)">
      <stop
         stop-color="#919191"
         offset="0"
         id="stop8" />
    </linearGradient>
    <linearGradient
       osb:paint="solid"
       id="main-color"
       gradientTransform="translate(65.445303,118.45543)">
      <stop
         stop-color="#5cbdff"
         offset="0"
         id="stop11" />
    </linearGradient>
    <filter
       y="-0.112"
       x="-0.075000003"
       width="1.151"
       style="color-interpolation-filters:sRGB"
       id="f-7"
       height="1.224">
      <feGaussianBlur
         stdDeviation=".982"
         id="feGaussianBlur14-5" />
    </filter>
    <filter
       y="-0.108"
       x="-0.077"
       width="1.155"
       style="color-interpolation-filters:sRGB"
       id="h-8"
       height="1.215">
      <feGaussianBlur
         stdDeviation="1.05"
         id="feGaussianBlur17-6" />
    </filter>
    <filter
       y="-0.10174929"
       x="-0.071523219"
       width="1.1430464"
       style="color-interpolation-filters:sRGB"
       id="filter5078-0"
       height="1.2034986">
      <feGaussianBlur
         stdDeviation="0.87442789"
         id="feGaussianBlur5080-0" />
    </filter>
    <linearGradient
       y2="-607.328"
       y1="-607.328"
       xlink:href="#card-back-color"
       x2="-684.099"
       x1="-713.91901"
       id="linearGradient5407"
       gradientUnits="userSpaceOnUse" />
    <linearGradient
       xlink:href="#secondary-main-color-4"
       id="linearGradient7009"
       gradientUnits="userSpaceOnUse"
       gradientTransform="translate(65.445303,118.45543)" />
  </defs>
  <g
     transform="translate(-149.92499,-168.83083)"
     id="layer11">
    <g
       transform="translate(-5.2874379,120.33881)"
       style="display:inline"
       id="g5075">
      <rect
         y="48.491428"
         x="155.21243"
         width="45.54649"
         style="color:#000000;display:inline;overflow:visible;visibility:visible;opacity:1;fill:#000000;fill-opacity:0;fill-rule:nonzero;stroke:none;stroke-width:0.10338347;stroke-linecap:round;stroke-linejoin:miter;stroke-miterlimit:4;stroke-dasharray:none;stroke-dashoffset:0;stroke-opacity:1;marker:none;enable-background:accumulate"
         id="rect5018"
         height="45.54649" />
      <g
         id="g5073">
        <path
           word-spacing="0"
           style="color:#000000;font-weight:400;line-height:125%;font-family:Arial;-inkscape-font-specification:Arial;text-align:center;letter-spacing:0;word-spacing:0;text-anchor:middle;overflow:visible;fill:url(#background-color);marker:none;enable-background:accumulate"
           overflow="visible"
           letter-spacing="0"
           id="path5020"
           font-weight="400"
           d="m 195.44061,77.67843 h -34.958 v -20.353 h 34.958 z" />
        <g
           transform="translate(155.73256,-114.05923)"
           style="display:inline"
           id="g5052">
          <g
             word-spacing="0"
             style="color:#000000;font-weight:400;font-family:Arial;letter-spacing:0;word-spacing:0;text-anchor:middle"
             letter-spacing="0"
             id="g5026"
             font-weight="400">
            <path
               transform="matrix(-1.1617324,-0.10163841,0.10163841,-1.1617324,-602.7924,-595.12301)"
               style="line-height:125%;-inkscape-font-specification:Arial;text-align:center;overflow:visible;opacity:0.15;fill:#090d00;marker:none;filter:url(#f-7);enable-background:accumulate"
               overflow="visible"
               id="path5022"
               d="m -606.91,-625.956 h 29.821 v 18.531 h -29.821 z" />
            <path
               transform="matrix(-1.1617324,-0.10163841,0.10163841,-1.1617324,-728.06042,-595.12303)"
               style="line-height:125%;-inkscape-font-specification:Arial;text-align:center;overflow:visible;fill:url(#linearGradient5407);marker:none;enable-background:accumulate"
               overflow="visible"
               id="path5024"
               d="m -713.919,-616.594 h 29.821 v 18.531 h -29.821 z" />
          </g>
          <g
             word-spacing="0"
             style="color:#000000;font-weight:400;font-family:Arial;letter-spacing:0;word-spacing:0;text-anchor:middle"
             letter-spacing="0"
             id="g5032"
             font-weight="400">
            <path
               transform="matrix(-1.1484533,-0.2025033,0.2025033,-1.1484533,-602.79238,-595.12303)"
               style="line-height:125%;-inkscape-font-specification:Arial;text-align:center;overflow:visible;opacity:0.15;fill-opacity:0.99299999;marker:none;filter:url(#h-8);enable-background:accumulate"
               overflow="visible"
               id="path5028"
               d="m -658.405,-572.013 h 29.821 v 18.531 h -29.821 z" />
            <path
               transform="matrix(-1.1484533,-0.2025033,0.2025033,-1.1484533,-728.0605,-595.12307)"
               style="line-height:125%;-inkscape-font-specification:Arial;text-align:center;overflow:visible;fill:url(#linearGradient7009);fill-opacity:1;marker:none;enable-background:accumulate"
               overflow="visible"
               id="path5030"
               d="m -764.192,-553.36 h 29.821 v 18.531 h -29.821 z" />
          </g>
          <g
             id="g5050">
            <g
               transform="skewX(-0.11545907)"
               style="font-weight:400;font-size:22.74031448px;line-height:125%;font-family:Arial;-inkscape-font-specification:Arial;text-align:center;letter-spacing:0;word-spacing:0;text-anchor:middle;opacity:0.07300002;fill:#000000;fill-opacity:1;stroke-width:1.16617;filter:url(#filter5078-0)"
               id="g5040"
               aria-label="lug">
              <path
                 style="letter-spacing:-1.32291675px;fill:#000000;fill-opacity:1"
                 id="path5034"
                 d="m 10.57308,184.55507 q 0,0.93235 0.341105,1.31894 0.363845,0.38658 0.955093,0.38658 0.363845,0 0.70495,-0.0455 0.341104,-0.0455 0.818651,-0.18192 l 0.272884,1.54634 q -0.227403,0.091 -0.545768,0.15918 -0.318364,0.091 -0.659469,0.15919 -0.341105,0.0682 -0.682209,0.091 -0.341105,0.0455 -0.613989,0.0455 -1.2279767,0 -1.9556668,-0.61399 -0.7276901,-0.63673 -0.7276901,-2.09211 V 171.79775 H 10.57308 Z" />
              <path
                 style="letter-spacing:-1.5875001px;fill:#000000;fill-opacity:1"
                 id="path5036"
                 d="m 16.967945,175.77731 v 6.57195 q 0,0.95509 0.113701,1.68278 0.113702,0.72769 0.409326,1.22798 0.295624,0.47755 0.795911,0.75043 0.523027,0.25014 1.318938,0.25014 1.364419,0 2.228551,-0.77317 0.864132,-0.77317 1.318938,-1.91018 v -7.79993 h 2.092109 v 8.55036 q 0,0.86413 0.06822,1.77374 0.06822,0.88687 0.204663,1.61456 h -1.4099 l -0.545767,-1.9784 h -0.227403 q -0.591249,1.02331 -1.637303,1.66004 -1.046055,0.63673 -2.615136,0.63673 -1.046055,0 -1.841966,-0.25015 -0.77317,-0.25014 -1.318938,-0.84139 -0.523027,-0.61399 -0.795911,-1.61456 -0.250143,-1.00057 -0.250143,-2.50143 v -7.0495 z" />
              <path
                 style="font-style:normal;font-variant:normal;font-weight:normal;font-stretch:normal;font-family:'PT Sans Caption';-inkscape-font-specification:'PT Sans Caption';text-align:start;letter-spacing:-1.45520842px;text-anchor:start;fill:#000000;fill-opacity:1;stroke-width:1.16617"
                 id="path5038"
                 d="m 37.804238,187.78419 q 0,2.34226 -1.387159,3.47927 -1.364419,1.15976 -4.025035,1.15976 -1.546342,0 -2.501435,-0.18192 -0.955093,-0.18193 -1.637303,-0.50029 l 0.500287,-1.88745 q 0.295624,0.13644 0.68221,0.27289 0.386585,0.15918 0.818651,0.27288 0.432066,0.1137 0.864132,0.18192 0.454806,0.0682 0.864132,0.0682 1.114275,0 1.841965,-0.20466 0.72769,-0.18192 1.159756,-0.59125 0.432066,-0.40932 0.591249,-1.04605 0.159182,-0.63673 0.159182,-1.5236 v -0.84139 h -0.250144 q -0.363845,0.59124 -1.273457,0.95509 -0.909613,0.36384 -2.205811,0.36384 -2.592396,0 -3.820373,-1.38716 -1.227977,-1.4099 -1.227977,-4.52532 0,-3.06994 1.591822,-4.72998 1.591822,-1.66005 4.729986,-1.66005 1.500861,0 2.569655,0.18193 1.091535,0.18192 1.955667,0.47754 z m -5.343974,-1.79648 q 1.38716,0 2.16033,-0.70495 0.795911,-0.70495 1.091535,-1.84197 v -5.867 q -0.523027,-0.15918 -1.205236,-0.25014 -0.68221,-0.091 -1.546342,-0.091 -1.773744,0 -2.774318,1.13701 -1.000574,1.11428 -1.000574,3.43379 0,2.00115 0.72769,3.09268 0.750431,1.09154 2.546915,1.09154 z" />
            </g>
            <g
               transform="skewX(-0.11545907)"
               style="font-weight:400;font-size:22.74031448px;line-height:125%;font-family:Arial;-inkscape-font-specification:Arial;text-align:center;letter-spacing:0;word-spacing:0;text-anchor:middle;stroke-width:1.16617"
               id="g5048"
               aria-label="lug">
              <path
                 style="letter-spacing:-1.32291675px;fill:#ffffff;fill-opacity:1"
                 id="path5042"
                 d="m 10.57308,184.55507 c 5.8e-5,0.62157 0.113702,1.06121 0.341105,1.31894 0.242563,0.25772 0.560928,0.38658 0.955093,0.38658 0.242563,0 0.477547,-0.0152 0.70495,-0.0455 0.227403,-0.0303 0.500286,-0.091 0.818651,-0.18192 l 0.272884,1.54634 c -0.151602,0.0607 -0.333525,0.11373 -0.545768,0.15918 -0.212243,0.0607 -0.432066,0.11373 -0.659469,0.15919 -0.227403,0.0455 -0.454806,0.0758 -0.682209,0.091 -0.227403,0.0303 -0.432066,0.0455 -0.613989,0.0455 -0.818651,0 -1.4705401,-0.20466 -1.9556668,-0.61399 -0.4851267,-0.42449 -0.7276901,-1.12186 -0.7276901,-2.09211 l -0.00125,-14.15243 H 10.57183 Z" />
              <path
                 style="letter-spacing:-1.5875001px;fill:#ffffff;fill-opacity:1"
                 id="path5044"
                 d="m 16.967945,175.77731 v 6.57195 q 0,0.95509 0.113701,1.68278 0.113702,0.72769 0.409326,1.22798 0.295624,0.47755 0.795911,0.75043 0.523027,0.25014 1.318938,0.25014 1.364419,0 2.228551,-0.77317 0.864132,-0.77317 1.318938,-1.91018 v -7.79993 h 2.092109 v 8.55036 q 0,0.86413 0.06822,1.77374 0.06822,0.88687 0.204663,1.61456 h -1.4099 l -0.545767,-1.9784 h -0.227403 q -0.591249,1.02331 -1.637303,1.66004 -1.046055,0.63673 -2.615136,0.63673 -1.046055,0 -1.841966,-0.25015 -0.77317,-0.25014 -1.318938,-0.84139 -0.523027,-0.61399 -0.795911,-1.61456 -0.250143,-1.00057 -0.250143,-2.50143 v -7.0495 z" />
              <path
                 style="font-style:normal;font-variant:normal;font-weight:normal;font-stretch:normal;font-family:'PT Sans Caption';-inkscape-font-specification:'PT Sans Caption';text-align:start;letter-spacing:-1.45520842px;text-anchor:start;fill:#ffffff;fill-opacity:1;stroke-width:1.16617"
                 id="path5046"
                 d="m 37.804238,187.78419 q 0,2.34226 -1.387159,3.47927 -1.364419,1.15976 -4.025035,1.15976 -1.546342,0 -2.501435,-0.18192 -0.955093,-0.18193 -1.637303,-0.50029 l 0.500287,-1.88745 q 0.295624,0.13644 0.68221,0.27289 0.386585,0.15918 0.818651,0.27288 0.432066,0.1137 0.864132,0.18192 0.454806,0.0682 0.864132,0.0682 1.114275,0 1.841965,-0.20466 0.72769,-0.18192 1.159756,-0.59125 0.432066,-0.40932 0.591249,-1.04605 0.159182,-0.63673 0.159182,-1.5236 v -0.84139 h -0.250144 q -0.363845,0.59124 -1.273457,0.95509 -0.909613,0.36384 -2.205811,0.36384 -2.592396,0 -3.820373,-1.38716 -1.227977,-1.4099 -1.227977,-4.52532 0,-3.06994 1.591822,-4.72998 1.591822,-1.66005 4.729986,-1.66005 1.500861,0 2.569655,0.18193 1.091535,0.18192 1.955667,0.47754 z m -5.343974,-1.79648 q 1.38716,0 2.16033,-0.70495 0.795911,-0.70495 1.091535,-1.84197 v -5.867 q -0.523027,-0.15918 -1.205236,-0.25014 -0.68221,-0.091 -1.546342,-0.091 -1.773744,0 -2.774318,1.13701 -1.000574,1.11428 -1.000574,3.43379 0,2.00115 0.72769,3.09268 0.750431,1.09154 2.546915,1.09154 z" />
            </g>
          </g>
        </g>
        <text
           y="87.242722"
           xml:space="preserve"
           x="196.42136"
           style="font-style:normal;font-variant:normal;font-weight:normal;font-stretch:normal;font-size:5.97397041px;line-height:1.25;font-family:'PT Sans Caption';-inkscape-font-specification:'PT Sans Caption';letter-spacing:0px;word-spacing:0px;display:inline;fill:#565656;fill-opacity:1;stroke:none;stroke-width:0.14934927"
           id="text5524-6"><tspan
             y="87.242722"
             x="195.98396"
             style="text-align:end;letter-spacing:-0.43738729px;text-anchor:end;fill:#565656;fill-opacity:1;stroke-width:0.14934927"
             id="tspan5522-3">Benchmarking</tspan></text>
      </g>
    </g>
  </g>
</svg>
