<?xml version="1.0" encoding="UTF-8" standalone="no"?>
<!-- Created with Inkscape (http://www.inkscape.org/) -->

<svg
   xmlns:dc="http://purl.org/dc/elements/1.1/"
   xmlns:cc="http://creativecommons.org/ns#"
   xmlns:rdf="http://www.w3.org/1999/02/22-rdf-syntax-ns#"
   xmlns:svg="http://www.w3.org/2000/svg"
   xmlns="http://www.w3.org/2000/svg"
   xmlns:sodipodi="http://sodipodi.sourceforge.net/DTD/sodipodi-0.dtd"
   xmlns:inkscape="http://www.inkscape.org/namespaces/inkscape"
   width="1920"
   height="1080"
   viewBox="0 0 508 285.75001"
   version="1.1"
   id="svg8"
   inkscape:export-filename="/home/arch/bg.png"
   inkscape:export-xdpi="96"
   inkscape:export-ydpi="96"
   inkscape:version="0.92.2 5c3e80d, 2017-08-06"
   sodipodi:docname="slides-bg.svg">
  <defs
     id="defs2">
    <clipPath
       clipPathUnits="userSpaceOnUse"
       id="clipPath33092">
      <rect
         style="opacity:0.42000002;fill:#ababab;fill-opacity:1;stroke-width:0.29250342"
         id="rect33094"
         width="263.75845"
         height="312.31604"
         x="303.61499"
         y="-451.29288"
         transform="matrix(0.50534002,-0.86292031,-0.86292031,-0.50534002,0,0)" />
    </clipPath>
    <clipPath
       clipPathUnits="userSpaceOnUse"
       id="clipPath31779">
      <rect
         style="opacity:0.42000002;fill:#ababab;fill-opacity:1;stroke-width:0.29250342"
         id="rect31781"
         width="257.2056"
         height="311.72507"
         x="-539.69775"
         y="149.67566"
         transform="matrix(-0.45357598,0.89121761,0.89121761,0.45357598,0,0)" />
    </clipPath>
  </defs>
  <sodipodi:namedview
     id="base"
     pagecolor="#ffffff"
     bordercolor="#666666"
     borderopacity="1.0"
     inkscape:pageopacity="0.0"
     inkscape:pageshadow="2"
     inkscape:zoom="0.49497475"
     inkscape:cx="822.47471"
     inkscape:cy="735.84018"
     inkscape:document-units="mm"
     inkscape:current-layer="layer1"
     showgrid="false"
     units="px"
     inkscape:snap-bbox="true"
     inkscape:bbox-paths="true"
     inkscape:bbox-nodes="true"
     inkscape:snap-bbox-edge-midpoints="true"
     inkscape:snap-bbox-midpoints="true"
     inkscape:object-paths="false"
     inkscape:snap-page="true"
     inkscape:window-width="1920"
     inkscape:window-height="1051"
     inkscape:window-x="0"
     inkscape:window-y="0"
     inkscape:window-maximized="1" />
  <metadata
     id="metadata5">
    <rdf:RDF>
      <cc:Work
         rdf:about="">
        <dc:format>image/svg+xml</dc:format>
        <dc:type
           rdf:resource="http://purl.org/dc/dcmitype/StillImage" />
        <dc:title></dc:title>
      </cc:Work>
    </rdf:RDF>
  </metadata>
  <g
     inkscape:label="Layer 1"
     inkscape:groupmode="layer"
     id="layer1"
     transform="translate(0,-11.249939)">
    <rect
       style="opacity:1;fill:#5cbdff;fill-opacity:1;stroke:none;stroke-width:0.21329613;stroke-linecap:butt;stroke-linejoin:miter;stroke-miterlimit:4;stroke-dasharray:none;stroke-dashoffset:0;stroke-opacity:1;paint-order:normal"
       id="rect1366"
       width="8.8867111"
       height="285.75"
       x="-8.8867111"
       y="11.249939"
       transform="scale(-1,1)" />
    <g
       id="g27533"
       transform="matrix(-0.41028117,0.80614896,0.80614896,0.41028117,763.52767,-104.12491)"
       style="display:inline;opacity:0.34;fill:#bababa;fill-opacity:1"
       clip-path="url(#clipPath31779)">
      <path
         inkscape:connector-curvature="0"
         id="path5932-4"
         style="fill:#bababa;fill-opacity:1;fill-rule:nonzero;stroke:none;stroke-width:0.11787961"
         d="m 354.03817,-99.256657 41.4441,19.487847 -46.84181,-50.94992 z m 42.50856,20.270586 -0.58703,-0.275671 -42.15139,-19.82029 -0.007,-0.06616 -5.55566,-32.377998 48.30233,52.54012" />
      <path
         inkscape:connector-curvature="0"
         id="path5934-2"
         style="fill:#bababa;fill-opacity:1;fill-rule:nonzero;stroke:none;stroke-width:0.11787961"
         d="m 354.53682,-98.740334 41.3498,41.084563 v -21.639152 z m 41.60322,41.696353 -0.21686,-0.214522 -42.61228,-42.34002 0.66839,0.314766 42.16082,19.824969 v 22.414807" />
      <path
         inkscape:connector-curvature="0"
         id="path5936-0"
         style="fill:#bababa;fill-opacity:1;fill-rule:nonzero;stroke:none;stroke-width:0.11787961"
         d="m 348.73479,-130.99219 47.30153,51.450901 79.37305,-49.501191 z m 47.25555,51.779768 -0.0708,-0.0802 -47.77187,-51.962508 0.29572,0.003 127.8345,1.96978 -0.36659,0.2299 -79.92118,49.840684" />
      <path
         inkscape:connector-curvature="0"
         id="path5938"
         style="fill:#bababa;fill-opacity:1;fill-rule:nonzero;stroke:none;stroke-width:0.11787961"
         d="m 493.07244,-192.54893 71.38434,24.65215 -55.64388,-53.29099 z m 72.39928,25.27103 -72.76824,-25.12838 0.0732,-0.13199 15.97265,-29.06207 0.11796,0.11428 56.60461,54.20812" />
      <path
         inkscape:connector-curvature="0"
         id="path5940"
         style="fill:#bababa;fill-opacity:1;fill-rule:nonzero;stroke:none;stroke-width:0.11787961"
         d="m 493.09954,-192.26838 27.2573,74.59659 44.38523,-49.85602 z m 27.16421,75.08578 -0.0732,-0.20149 -27.51312,-75.3003 0.25228,0.0885 72.25786,24.95042 -0.12864,0.14368 -44.79544,50.31928" />
      <path
         inkscape:connector-curvature="0"
         id="path5942"
         style="fill:#bababa;fill-opacity:1;fill-rule:nonzero;stroke:none;stroke-width:0.11787961"
         d="m 475.99994,-129.25349 44.10699,11.64061 -27.20069,-74.44449 -5.34468,19.69178 z m 44.51368,12.01077 -44.82607,-11.8304 0.0334,-0.12129 11.59583,-43.23587 5.55329,-20.46506 11.32236,30.9811 16.32278,44.67166" />
      <path
         inkscape:connector-curvature="0"
         id="path5944"
         style="fill:#bababa;fill-opacity:1;fill-rule:nonzero;stroke:none;stroke-width:0.11787961"
         d="m 396.14004,-79.306718 v 21.753497 l 123.80423,-59.839189 -44.08106,-11.63239 z m -0.25328,22.160187 v -22.300462 l 0.0601,-0.03876 79.87525,-49.813547 0.0531,0.0134 44.80132,11.82215 -0.31109,0.15104 -124.47851,60.165752" />
      <path
         inkscape:connector-curvature="0"
         id="path5946"
         style="fill:#bababa;fill-opacity:1;fill-rule:nonzero;stroke:none;stroke-width:0.11787961"
         d="m 348.66288,-131.24801 127.08244,1.958 16.98409,-63.08917 -96.65182,-19.83323 z m 127.27812,2.21496 -0.0989,-8.7e-4 -127.62115,-1.96505 0.11194,-0.18746 47.61747,-81.31218 0.0885,0.0167 97.00902,19.90751 -0.0364,0.13098 -17.07016,63.41096" />
      <path
         inkscape:connector-curvature="0"
         id="path5948"
         style="fill:#bababa;fill-opacity:1;fill-rule:nonzero;stroke:none;stroke-width:0.11787961"
         d="m 396.91807,-212.30083 95.9033,19.68119 15.73337,-28.62827 z m 96.03649,19.96762 -0.0909,-0.02 -97.754,-20.05957 0.89234,-0.0718 113.00527,-9.05668 -16.05286,29.20702" />
      <path
         inkscape:connector-curvature="0"
         id="path5950"
         style="fill:#bababa;fill-opacity:1;fill-rule:nonzero;stroke:none;stroke-width:0.11787961"
         d="m 420.37137,-164.2248 -24.68279,-48.13968 0.52457,-0.26999 24.6828,48.13968 -0.52458,0.26999" />
      <path
         inkscape:connector-curvature="0"
         id="path5952"
         style="fill:#bababa;fill-opacity:1;fill-rule:nonzero;stroke:none;stroke-width:0.11787961"
         d="m 420.79457,-164.11283 -0.32078,-0.49511 88.23406,-57.12445 0.31944,0.4951 -88.23286,57.12446" />
      <path
         inkscape:connector-curvature="0"
         id="path5954"
         style="fill:#bababa;fill-opacity:1;fill-rule:nonzero;stroke:none;stroke-width:0.11787961"
         d="m 475.75358,-128.80436 -55.27846,-35.3073 0.31811,-0.49745 55.27729,35.3073 -0.31711,0.49745" />
      <path
         inkscape:connector-curvature="0"
         id="path5956"
         style="fill:#bababa;fill-opacity:1;fill-rule:nonzero;stroke:none;stroke-width:0.11787961"
         d="m 396.24262,-79.180578 -0.56584,-0.162729 24.67458,-85.098463 0.56581,0.16374 -24.67455,85.097285" />
      <path
         inkscape:connector-curvature="0"
         id="path5958"
         style="fill:#bababa;fill-opacity:1;fill-rule:nonzero;stroke:none;stroke-width:0.11787961"
         d="m 348.34578,-130.73052 -0.24627,-0.53634 72.41107,-33.36109 0.24626,0.53634 -72.41106,33.36109" />
      <path
         inkscape:connector-curvature="0"
         id="path5960"
         style="fill:#bababa;fill-opacity:1;fill-rule:nonzero;stroke:none;stroke-width:0.11787961"
         d="m 495.37111,-152.81055 -0.11662,-0.5776 70.15838,-14.17856 0.11796,0.57761 -70.15959,14.17855" />
      <path
         inkscape:connector-curvature="0"
         id="path5962"
         style="fill:#bababa;fill-opacity:1;fill-rule:nonzero;stroke:none;stroke-width:0.11787961"
         d="m 495.60214,-153.04158 -0.57878,-0.11561 13.55497,-68.38551 0.57878,0.11428 -13.55497,68.38668" />
      <path
         inkscape:connector-curvature="0"
         id="path5964"
         style="fill:#bababa;fill-opacity:1;fill-rule:nonzero;stroke:none;stroke-width:0.11787961"
         d="m 495.26856,-152.80817 -74.67792,-11.25985 0.0872,-0.58352 74.67789,11.26105 -0.0872,0.58232" />
      <path
         inkscape:connector-curvature="0"
         id="path5966"
         style="fill:#bababa;fill-opacity:1;fill-rule:nonzero;stroke:none;stroke-width:0.11787961"
         d="m 520.02206,-117.01523 -24.95155,-35.91554 0.48331,-0.33595 24.95155,35.91554 -0.48331,0.33595" />
      <path
         inkscape:connector-curvature="0"
         id="path5968"
         style="fill:#bababa;fill-opacity:1;fill-rule:nonzero;stroke:none;stroke-width:0.11787961"
         d="m 476.14139,-128.86802 -0.45855,-0.3713 19.40063,-24.04508 0.45855,0.37013 -19.40063,24.04625" />
      <path
         inkscape:connector-curvature="0"
         id="path5970"
         style="fill:#bababa;fill-opacity:1;fill-rule:nonzero;stroke:none;stroke-width:0.11787961"
         d="m 396.12003,-57.038067 -0.39373,-0.440873 79.98838,-71.79457 0.39373,0.43967 -79.98838,71.795773" />
      <path
         inkscape:connector-curvature="0"
         id="path5972"
         style="fill:#bababa;fill-opacity:1;fill-rule:nonzero;stroke:none;stroke-width:0.11787961"
         d="m 398.10158,-212.48237 c 0,1.13991 -0.92418,2.06289 -2.06289,2.06289 -1.13873,0 -2.06292,-0.92298 -2.06292,-2.06289 0,-1.13991 0.92419,-2.06289 2.06292,-2.06289 1.13871,0 2.06289,0.92298 2.06289,2.06289" />
      <path
         inkscape:connector-curvature="0"
         id="path5974"
         style="fill:#bababa;fill-opacity:1;fill-rule:nonzero;stroke:none;stroke-width:0.11787961"
         d="m 422.43426,-164.2248 c 0,1.13987 -0.92298,2.06289 -2.06289,2.06289 -1.13987,0 -2.06289,-0.92302 -2.06289,-2.06289 0,-1.13991 0.92302,-2.06289 2.06289,-2.06289 1.13991,0 2.06289,0.92298 2.06289,2.06289" />
      <path
         inkscape:connector-curvature="0"
         id="path5976"
         style="fill:#bababa;fill-opacity:1;fill-rule:nonzero;stroke:none;stroke-width:0.11787961"
         d="m 497.08625,-153.15709 c 0,1.13988 -0.92418,2.06289 -2.06289,2.06289 -1.13874,0 -2.06289,-0.92301 -2.06289,-2.06289 0,-1.13874 0.92415,-2.06289 2.06289,-2.06289 1.13871,0 2.06289,0.92415 2.06289,2.06289" />
      <path
         inkscape:connector-curvature="0"
         id="path5978"
         style="fill:#bababa;fill-opacity:1;fill-rule:nonzero;stroke:none;stroke-width:0.11787961"
         d="m 494.85478,-192.38861 c 0,1.13991 -0.92418,2.06289 -2.06288,2.06289 -1.13991,0 -2.06289,-0.92298 -2.06289,-2.06289 0,-1.13991 0.92298,-2.06289 2.06289,-2.06289 1.1387,0 2.06288,0.92298 2.06288,2.06289" />
      <path
         inkscape:connector-curvature="0"
         id="path5980"
         style="fill:#bababa;fill-opacity:1;fill-rule:nonzero;stroke:none;stroke-width:0.11787961"
         d="m 511.0703,-221.00743 c 0,1.13991 -0.92535,2.06289 -2.06289,2.06289 -1.13991,0 -2.06289,-0.92298 -2.06289,-2.06289 0,-1.13991 0.92298,-2.06289 2.06289,-2.06289 1.13754,0 2.06289,0.92298 2.06289,2.06289" />
      <path
         inkscape:connector-curvature="0"
         id="path5982"
         style="fill:#bababa;fill-opacity:1;fill-rule:nonzero;stroke:none;stroke-width:0.11787961"
         d="m 566.72009,-167.2779 c 0,1.13991 -0.92535,2.06289 -2.06289,2.06289 -1.13991,0 -2.06292,-0.92298 -2.06292,-2.06289 0,-1.13988 0.92301,-2.06289 2.06292,-2.06289 1.13754,0 2.06289,0.92301 2.06289,2.06289" />
      <path
         inkscape:connector-curvature="0"
         id="path5984"
         style="fill:#bababa;fill-opacity:1;fill-rule:nonzero;stroke:none;stroke-width:0.11787961"
         d="m 522.57655,-117.24272 c 0,1.13988 -0.92419,2.06289 -2.06293,2.06289 -1.13987,0 -2.06289,-0.92301 -2.06289,-2.06289 0,-1.1399 0.92302,-2.06288 2.06289,-2.06288 1.13874,0 2.06293,0.92298 2.06293,2.06288" />
      <path
         inkscape:connector-curvature="0"
         id="path5986"
         style="fill:#bababa;fill-opacity:1;fill-rule:nonzero;stroke:none;stroke-width:0.11787961"
         d="m 477.75044,-129.29944 c 0,1.13871 -0.92415,2.06289 -2.06289,2.06289 -1.13987,0 -2.06289,-0.92418 -2.06289,-2.06289 0,-1.13991 0.92302,-2.06292 2.06289,-2.06292 1.13874,0 2.06289,0.92301 2.06289,2.06292" />
      <path
         inkscape:connector-curvature="0"
         id="path5988"
         style="fill:#bababa;fill-opacity:1;fill-rule:nonzero;stroke:none;stroke-width:0.11787961"
         d="m 398.02259,-79.261909 c 0,1.139875 -0.92535,2.062889 -2.06289,2.062889 -1.13991,0 -2.06289,-0.923014 -2.06289,-2.062889 0,-1.139909 0.92298,-2.062889 2.06289,-2.062889 1.13754,0 2.06289,0.92298 2.06289,2.062889" />
      <path
         inkscape:connector-curvature="0"
         id="path5990"
         style="fill:#bababa;fill-opacity:1;fill-rule:nonzero;stroke:none;stroke-width:0.11787961"
         d="m 397.94951,-57.146531 c 0,1.139909 -0.92418,2.062889 -2.06289,2.062889 -1.1399,0 -2.06288,-0.92298 -2.06288,-2.062889 0,-1.139909 0.92298,-2.062889 2.06288,-2.062889 1.13871,0 2.06289,0.92298 2.06289,2.062889" />
      <path
         inkscape:connector-curvature="0"
         id="path5992"
         style="fill:#bababa;fill-opacity:1;fill-rule:nonzero;stroke:none;stroke-width:0.11787961"
         d="m 355.84764,-99.359207 c 0,1.139875 -0.92418,2.062889 -2.06289,2.062889 -1.13991,0 -2.06289,-0.923014 -2.06289,-2.062889 0,-1.139913 0.92298,-2.062893 2.06289,-2.062893 1.13871,0 2.06289,0.92298 2.06289,2.062893" />
      <path
         inkscape:connector-curvature="0"
         id="path5994"
         style="fill:#bababa;fill-opacity:1;fill-rule:nonzero;stroke:none;stroke-width:0.11787961"
         d="m 350.1906,-131.05585 c 0,1.13988 -0.92418,2.06289 -2.06289,2.06289 -1.13991,0 -2.06292,-0.92301 -2.06292,-2.06289 0,-1.13874 0.92301,-2.06289 2.06292,-2.06289 1.13871,0 2.06289,0.92415 2.06289,2.06289" />
    </g>
    <g
       clip-path="url(#clipPath33092)"
       style="display:inline;opacity:0.245;fill:#bababa;fill-opacity:1"
       transform="matrix(0.45710422,-0.78055269,-0.78055269,-0.45710422,-265.74757,388.67329)"
       id="g33079">
      <path
         d="m 354.03817,-99.256657 41.4441,19.487847 -46.84181,-50.94992 z m 42.50856,20.270586 -0.58703,-0.275671 -42.15139,-19.82029 -0.007,-0.06616 -5.55566,-32.377998 48.30233,52.54012"
         style="fill:#bababa;fill-opacity:1;fill-rule:nonzero;stroke:none;stroke-width:0.11787961"
         id="path33015"
         inkscape:connector-curvature="0" />
      <path
         d="m 354.53682,-98.740334 41.3498,41.084563 v -21.639152 z m 41.60322,41.696353 -0.21686,-0.214522 -42.61228,-42.34002 0.66839,0.314766 42.16082,19.824969 v 22.414807"
         style="fill:#bababa;fill-opacity:1;fill-rule:nonzero;stroke:none;stroke-width:0.11787961"
         id="path33017"
         inkscape:connector-curvature="0" />
      <path
         d="m 348.73479,-130.99219 47.30153,51.450901 79.37305,-49.501191 z m 47.25555,51.779768 -0.0708,-0.0802 -47.77187,-51.962508 0.29572,0.003 127.8345,1.96978 -0.36659,0.2299 -79.92118,49.840684"
         style="fill:#bababa;fill-opacity:1;fill-rule:nonzero;stroke:none;stroke-width:0.11787961"
         id="path33019"
         inkscape:connector-curvature="0" />
      <path
         d="m 481.33625,-189.25275 56.90427,12.62282 -36.88579,-51.48385 z m 57.91921,13.2417 -58.28817,-13.09905 0.0732,-0.13199 20.25067,-39.28426 0.11796,0.11428 37.84652,52.40098"
         style="fill:#bababa;fill-opacity:1;fill-rule:nonzero;stroke:none;stroke-width:0.11787961"
         id="path33021"
         inkscape:connector-curvature="0"
         sodipodi:nodetypes="cccccccccc" />
      <path
         d="m 481.36335,-188.9722 38.99349,71.30041 18.16897,-58.58917 z m 38.9004,71.7896 -0.0732,-0.20149 -39.24931,-72.00412 0.25228,0.0885 57.77779,12.92109 -0.12864,0.14368 -18.57918,59.05243"
         style="fill:#bababa;fill-opacity:1;fill-rule:nonzero;stroke:none;stroke-width:0.11787961"
         id="path33023"
         inkscape:connector-curvature="0"
         sodipodi:nodetypes="ccccccccccc" />
      <path
         d="m 475.99994,-129.25349 44.10699,11.64061 -38.93688,-71.14831 -2.03369,22.72029 z m 44.51368,12.01077 -44.82607,-11.8304 0.0334,-0.12129 3.84888,-42.20383 1.56405,-18.20092 17.36704,31.61551 22.01429,40.74107"
         style="fill:#bababa;fill-opacity:1;fill-rule:nonzero;stroke:none;stroke-width:0.11787961"
         id="path33025"
         inkscape:connector-curvature="0"
         sodipodi:nodetypes="cccccccccccc" />
      <path
         d="m 396.14004,-79.306718 v 21.753497 l 123.80423,-59.839189 -44.08106,-11.63239 z m -0.25328,22.160187 v -22.300462 l 0.0601,-0.03876 79.87525,-49.813547 0.0531,0.0134 44.80132,11.82215 -0.31109,0.15104 -124.47851,60.165752"
         style="fill:#bababa;fill-opacity:1;fill-rule:nonzero;stroke:none;stroke-width:0.11787961"
         id="path33027"
         inkscape:connector-curvature="0" />
      <path
         d="m 348.66288,-131.24801 127.08244,1.958 5.2479,-59.79299 -84.91563,-23.12941 z m 127.27812,2.21496 -0.0989,-8.7e-4 -127.62115,-1.96505 0.11194,-0.18746 47.61747,-81.31218 0.0885,0.0167 85.27283,23.20369 -0.0364,0.13098 -5.33397,60.11478"
         style="fill:#bababa;fill-opacity:1;fill-rule:nonzero;stroke:none;stroke-width:0.11787961"
         id="path33029"
         inkscape:connector-curvature="0"
         sodipodi:nodetypes="cccccccccccccc" />
      <path
         d="m 396.91807,-212.30083 84.16711,22.97737 19.87141,-38.79526 z m 84.3003,23.2638 -0.0909,-0.02 -86.01781,-23.35575 0.89234,-0.0718 105.40712,-15.92749 -20.1909,39.37401"
         style="fill:#bababa;fill-opacity:1;fill-rule:nonzero;stroke:none;stroke-width:0.11787961"
         id="path33031"
         inkscape:connector-curvature="0"
         sodipodi:nodetypes="cccccccccc" />
      <path
         d="m 420.37137,-164.2248 -24.68279,-48.13968 0.52457,-0.26999 24.6828,48.13968 -0.52458,0.26999"
         style="fill:#bababa;fill-opacity:1;fill-rule:nonzero;stroke:none;stroke-width:0.11787961"
         id="path33033"
         inkscape:connector-curvature="0" />
      <path
         d="m 420.79457,-164.11283 -0.32078,-0.49511 80.4828,-63.51078 0.31944,0.4951 -80.4816,63.51079"
         style="fill:#bababa;fill-opacity:1;fill-rule:nonzero;stroke:none;stroke-width:0.11787961"
         id="path33035"
         inkscape:connector-curvature="0"
         sodipodi:nodetypes="ccccc" />
      <path
         d="m 475.75358,-128.80436 -55.27846,-35.3073 0.31811,-0.49745 55.27729,35.3073 -0.31711,0.49745"
         style="fill:#bababa;fill-opacity:1;fill-rule:nonzero;stroke:none;stroke-width:0.11787961"
         id="path33037"
         inkscape:connector-curvature="0" />
      <path
         d="m 396.24262,-79.180578 -0.56584,-0.162729 24.67458,-85.098463 0.56581,0.16374 -24.67455,85.097285"
         style="fill:#bababa;fill-opacity:1;fill-rule:nonzero;stroke:none;stroke-width:0.11787961"
         id="path33039"
         inkscape:connector-curvature="0" />
      <path
         d="m 348.34578,-130.73052 -0.24627,-0.53634 72.41107,-33.36109 0.24626,0.53634 -72.41106,33.36109"
         style="fill:#bababa;fill-opacity:1;fill-rule:nonzero;stroke:none;stroke-width:0.11787961"
         id="path33041"
         inkscape:connector-curvature="0" />
      <path
         d="m 490.76659,-149.77165 -0.11662,-0.5776 48.54664,-25.95061 0.11796,0.57761 -48.54785,25.9506"
         style="fill:#bababa;fill-opacity:1;fill-rule:nonzero;stroke:none;stroke-width:0.11787961"
         id="path33043"
         inkscape:connector-curvature="0"
         sodipodi:nodetypes="ccccc" />
      <path
         d="m 490.99762,-150.00268 -0.57878,-0.11561 10.70132,-78.35042 0.57878,0.11428 -10.70132,78.35159"
         style="fill:#bababa;fill-opacity:1;fill-rule:nonzero;stroke:none;stroke-width:0.11787961"
         id="path33045"
         inkscape:connector-curvature="0"
         sodipodi:nodetypes="ccccc" />
      <path
         d="m 490.66404,-149.76927 -70.0734,-14.29875 0.0872,-0.58352 70.07337,14.29995 -0.0872,0.58232"
         style="fill:#bababa;fill-opacity:1;fill-rule:nonzero;stroke:none;stroke-width:0.11787961"
         id="path33047"
         inkscape:connector-curvature="0"
         sodipodi:nodetypes="ccccc" />
      <path
         d="m 520.02206,-117.01523 -29.55607,-32.87664 0.48331,-0.33595 29.55607,32.87664 -0.48331,0.33595"
         style="fill:#bababa;fill-opacity:1;fill-rule:nonzero;stroke:none;stroke-width:0.11787961"
         id="path33049"
         inkscape:connector-curvature="0"
         sodipodi:nodetypes="ccccc" />
      <path
         d="m 476.14139,-128.86802 -0.45855,-0.3713 14.79611,-21.00618 0.45855,0.37013 -14.79611,21.00735"
         style="fill:#bababa;fill-opacity:1;fill-rule:nonzero;stroke:none;stroke-width:0.11787961"
         id="path33051"
         inkscape:connector-curvature="0"
         sodipodi:nodetypes="ccccc" />
      <path
         d="m 396.12003,-57.038067 -0.39373,-0.440873 79.98838,-71.79457 0.39373,0.43967 -79.98838,71.795773"
         style="fill:#bababa;fill-opacity:1;fill-rule:nonzero;stroke:none;stroke-width:0.11787961"
         id="path33053"
         inkscape:connector-curvature="0" />
      <path
         d="m 398.10158,-212.48237 c 0,1.13991 -0.92418,2.06289 -2.06289,2.06289 -1.13873,0 -2.06292,-0.92298 -2.06292,-2.06289 0,-1.13991 0.92419,-2.06289 2.06292,-2.06289 1.13871,0 2.06289,0.92298 2.06289,2.06289"
         style="fill:#bababa;fill-opacity:1;fill-rule:nonzero;stroke:none;stroke-width:0.11787961"
         id="path33055"
         inkscape:connector-curvature="0" />
      <path
         d="m 422.43426,-164.2248 c 0,1.13987 -0.92298,2.06289 -2.06289,2.06289 -1.13987,0 -2.06289,-0.92302 -2.06289,-2.06289 0,-1.13991 0.92302,-2.06289 2.06289,-2.06289 1.13991,0 2.06289,0.92298 2.06289,2.06289"
         style="fill:#bababa;fill-opacity:1;fill-rule:nonzero;stroke:none;stroke-width:0.11787961"
         id="path33057"
         inkscape:connector-curvature="0" />
      <path
         d="m 492.94976,-150.18652 c 0,1.13988 -0.92418,2.06289 -2.06289,2.06289 -1.13874,0 -2.06289,-0.92301 -2.06289,-2.06289 0,-1.13874 0.92415,-2.06289 2.06289,-2.06289 1.13871,0 2.06289,0.92415 2.06289,2.06289"
         style="fill:#bababa;fill-opacity:1;fill-rule:nonzero;stroke:none;stroke-width:0.11787961"
         id="path33059"
         inkscape:connector-curvature="0"
         sodipodi:nodetypes="csssc" />
      <path
         d="m 483.11859,-189.09243 c 0,1.13991 -0.92418,2.06289 -2.06288,2.06289 -1.13991,0 -2.06289,-0.92298 -2.06289,-2.06289 0,-1.13991 0.92298,-2.06289 2.06289,-2.06289 1.1387,0 2.06288,0.92298 2.06288,2.06289"
         style="fill:#bababa;fill-opacity:1;fill-rule:nonzero;stroke:none;stroke-width:0.11787961"
         id="path33061"
         inkscape:connector-curvature="0"
         sodipodi:nodetypes="csssc" />
      <path
         d="m 503.69873,-228.26514 c 0,1.13991 -0.92535,2.06289 -2.06289,2.06289 -1.13991,0 -2.06289,-0.92298 -2.06289,-2.06289 0,-1.13991 0.92298,-2.06289 2.06289,-2.06289 1.13754,0 2.06289,0.92298 2.06289,2.06289"
         style="fill:#bababa;fill-opacity:1;fill-rule:nonzero;stroke:none;stroke-width:0.11787961"
         id="path33063"
         inkscape:connector-curvature="0" />
      <path
         d="m 540.50383,-176.01104 c 0,1.13991 -0.92535,2.06289 -2.06289,2.06289 -1.13991,0 -2.06292,-0.92298 -2.06292,-2.06289 0,-1.13988 0.92301,-2.06289 2.06292,-2.06289 1.13754,0 2.06289,0.92301 2.06289,2.06289"
         style="fill:#bababa;fill-opacity:1;fill-rule:nonzero;stroke:none;stroke-width:0.11787961"
         id="path33065"
         inkscape:connector-curvature="0"
         sodipodi:nodetypes="csssc" />
      <path
         d="m 522.57655,-117.24272 c 0,1.13988 -0.92419,2.06289 -2.06293,2.06289 -1.13987,0 -2.06289,-0.92301 -2.06289,-2.06289 0,-1.1399 0.92302,-2.06288 2.06289,-2.06288 1.13874,0 2.06293,0.92298 2.06293,2.06288"
         style="fill:#bababa;fill-opacity:1;fill-rule:nonzero;stroke:none;stroke-width:0.11787961"
         id="path33067"
         inkscape:connector-curvature="0" />
      <path
         d="m 477.75044,-129.29944 c 0,1.13871 -0.92415,2.06289 -2.06289,2.06289 -1.13987,0 -2.06289,-0.92418 -2.06289,-2.06289 0,-1.13991 0.92302,-2.06292 2.06289,-2.06292 1.13874,0 2.06289,0.92301 2.06289,2.06292"
         style="fill:#bababa;fill-opacity:1;fill-rule:nonzero;stroke:none;stroke-width:0.11787961"
         id="path33069"
         inkscape:connector-curvature="0" />
      <path
         d="m 398.02259,-79.261909 c 0,1.139875 -0.92535,2.062889 -2.06289,2.062889 -1.13991,0 -2.06289,-0.923014 -2.06289,-2.062889 0,-1.139909 0.92298,-2.062889 2.06289,-2.062889 1.13754,0 2.06289,0.92298 2.06289,2.062889"
         style="fill:#bababa;fill-opacity:1;fill-rule:nonzero;stroke:none;stroke-width:0.11787961"
         id="path33071"
         inkscape:connector-curvature="0" />
      <path
         d="m 397.94951,-57.146531 c 0,1.139909 -0.92418,2.062889 -2.06289,2.062889 -1.1399,0 -2.06288,-0.92298 -2.06288,-2.062889 0,-1.139909 0.92298,-2.062889 2.06288,-2.062889 1.13871,0 2.06289,0.92298 2.06289,2.062889"
         style="fill:#bababa;fill-opacity:1;fill-rule:nonzero;stroke:none;stroke-width:0.11787961"
         id="path33073"
         inkscape:connector-curvature="0" />
      <path
         d="m 355.84764,-99.359207 c 0,1.139875 -0.92418,2.062889 -2.06289,2.062889 -1.13991,0 -2.06289,-0.923014 -2.06289,-2.062889 0,-1.139913 0.92298,-2.062893 2.06289,-2.062893 1.13871,0 2.06289,0.92298 2.06289,2.062893"
         style="fill:#bababa;fill-opacity:1;fill-rule:nonzero;stroke:none;stroke-width:0.11787961"
         id="path33075"
         inkscape:connector-curvature="0" />
      <path
         d="m 350.1906,-131.05585 c 0,1.13988 -0.92418,2.06289 -2.06289,2.06289 -1.13991,0 -2.06292,-0.92301 -2.06292,-2.06289 0,-1.13874 0.92301,-2.06289 2.06292,-2.06289 1.13871,0 2.06289,0.92415 2.06289,2.06289"
         style="fill:#bababa;fill-opacity:1;fill-rule:nonzero;stroke:none;stroke-width:0.11787961"
         id="path33077"
         inkscape:connector-curvature="0" />
    </g>
  </g>
</svg>
