<?xml version="1.0" encoding="UTF-8" standalone="no"?>
<!-- Created with Inkscape (http://www.inkscape.org/) -->

<svg
   xmlns:dc="http://purl.org/dc/elements/1.1/"
   xmlns:cc="http://creativecommons.org/ns#"
   xmlns:rdf="http://www.w3.org/1999/02/22-rdf-syntax-ns#"
   xmlns:svg="http://www.w3.org/2000/svg"
   xmlns="http://www.w3.org/2000/svg"
   xmlns:sodipodi="http://sodipodi.sourceforge.net/DTD/sodipodi-0.dtd"
   xmlns:inkscape="http://www.inkscape.org/namespaces/inkscape"
   height="44.227467"
   id="svg5164"
   inkscape:version="0.92.2 5c3e80d, 2017-08-06"
   sodipodi:docname="epitech.svg"
   version="1.1"
   viewBox="0 0 32.197808 11.70185"
   width="121.69251">
  <defs
     id="defs5158" />
  <sodipodi:namedview
     bordercolor="#666666"
     borderopacity="1.0"
     fit-margin-bottom="16"
     fit-margin-left="16"
     fit-margin-right="16"
     fit-margin-top="16"
     id="base"
     inkscape:current-layer="epitech"
     inkscape:cx="42.237509"
     inkscape:cy="12.279876"
     inkscape:document-units="mm"
     inkscape:pageopacity="0.0"
     inkscape:pageshadow="2"
     inkscape:window-height="1051"
     inkscape:window-maximized="1"
     inkscape:window-width="1920"
     inkscape:window-x="0"
     inkscape:window-y="0"
     inkscape:zoom="3.959798"
     pagecolor="#ffffff"
     showgrid="false"
     units="px" />
  <metadata
     id="metadata5161">
    <rdf:RDF>
      <cc:Work
         rdf:about="">
        <dc:format>image/svg+xml</dc:format>
        <dc:type
           rdf:resource="http://purl.org/dc/dcmitype/StillImage" />
        <dc:title />
      </cc:Work>
    </rdf:RDF>
  </metadata>
  <g
     id="epitech"
     inkscape:groupmode="layer"
     inkscape:label="epitech"
     transform="translate(-0.83443405,-2.615749)">
    <path
       d="m -293.09659,320.21198 c -0.036,-0.006 -0.1004,-0.0121 -0.14316,-0.0127 -0.10204,-10e-4 -0.23566,-0.0649 -0.34314,-0.16314 -0.0925,-0.0845 -0.14264,-0.16288 -0.18707,-0.29231 l -0.031,-0.0903 -0.007,-2.29468 c -0.007,-2.17649 -0.008,-2.29878 -0.0341,-2.37454 -0.0917,-0.27467 -0.28982,-0.46489 -0.5678,-0.5452 -0.15814,-0.0457 -0.1562,-0.0874 0.006,-0.12885 0.12884,-0.033 0.25474,-0.10405 0.34982,-0.19735 0.0947,-0.093 0.14719,-0.17756 0.20052,-0.32346 l 0.0383,-0.10499 0.007,-2.29466 c 0.007,-2.18038 0.008,-2.29865 0.0342,-2.37454 0.0615,-0.18325 0.16745,-0.31389 0.3271,-0.40317 0.12319,-0.0689 0.19413,-0.0762 0.83296,-0.0854 0.43562,-0.006 0.5077,-0.005 0.52647,0.0145 0.017,0.017 0.0217,0.0621 0.0217,0.20938 v 0.18762 l -0.20695,0.008 c -0.23367,0.009 -0.33683,0.028 -0.43338,0.0765 -0.13725,0.0691 -0.20341,0.19337 -0.23001,0.43198 -0.0106,0.0925 -0.0156,0.81289 -0.0159,2.13356 -1.8e-4,1.69428 -0.004,2.00915 -0.0215,2.09554 -0.0553,0.26421 -0.24752,0.51379 -0.48202,0.62579 -0.0654,0.0313 -0.11933,0.0603 -0.11981,0.0645 -4.6e-4,0.005 0.0287,0.0187 0.0648,0.0321 0.17549,0.065 0.36848,0.24931 0.45913,0.43836 0.1044,0.21771 0.0992,0.0962 0.0996,2.32479 1.6e-4,1.20774 0.006,2.05324 0.0146,2.12759 0.0221,0.19277 0.0525,0.2717 0.13743,0.35654 0.0539,0.0539 0.0949,0.0801 0.15461,0.0988 0.0959,0.03 0.29181,0.0525 0.45965,0.0529 l 0.11981,4.7e-4 v 0.18985 c 0,0.14516 -0.005,0.19471 -0.0208,0.21058 -0.0172,0.0172 -0.0999,0.0205 -0.48289,0.0189 -0.25418,-10e-4 -0.49155,-0.007 -0.5275,-0.0134 z m 28.32395,-0.006 c -0.0125,-0.0147 -0.0181,-0.0797 -0.0181,-0.20848 v -0.18719 l 0.20696,-0.008 c 0.23367,-0.009 0.33682,-0.028 0.43338,-0.0765 0.13271,-0.0668 0.20256,-0.19271 0.23048,-0.41529 0.009,-0.0782 0.0151,-0.82519 0.0151,-2.1277 0,-2.24402 -0.006,-2.11904 0.10393,-2.3432 0.0837,-0.17138 0.23306,-0.32103 0.39984,-0.40068 0.0654,-0.0313 0.11893,-0.0601 0.11893,-0.0641 0,-0.004 -0.0535,-0.0328 -0.11893,-0.0641 -0.16678,-0.0797 -0.31612,-0.22932 -0.39984,-0.40068 -0.10945,-0.22414 -0.10393,-0.0994 -0.10404,-2.34282 0,-1.16788 -0.006,-2.05547 -0.0139,-2.12308 -0.023,-0.19496 -0.051,-0.26578 -0.13863,-0.35124 -0.0563,-0.0549 -0.0983,-0.0816 -0.15475,-0.0984 -0.0945,-0.0282 -0.29729,-0.0508 -0.45877,-0.0511 l -0.11982,-1.7e-4 v -0.18984 c 0,-0.14926 0.005,-0.19449 0.0217,-0.21159 0.0188,-0.0188 0.0908,-0.0208 0.52647,-0.0144 0.27758,0.004 0.55372,0.0127 0.61364,0.0192 0.135,0.0146 0.24658,0.0669 0.35633,0.16723 0.0918,0.0839 0.14198,0.16243 0.18633,0.29163 l 0.031,0.0903 0.007,2.29468 c 0.007,2.17649 0.008,2.29878 0.0341,2.37454 0.0917,0.27466 0.28982,0.46489 0.56781,0.5452 0.15839,0.0457 0.15648,0.0832 -0.007,0.12808 -0.26725,0.0735 -0.45411,0.25288 -0.55436,0.53215 l -0.0339,0.0944 -0.007,2.29467 -0.007,2.29467 -0.031,0.0903 c -0.0441,0.12834 -0.0944,0.20767 -0.18365,0.28904 -0.11817,0.10781 -0.21459,0.15422 -0.35168,0.16918 -0.064,0.007 -0.345,0.0155 -0.62457,0.019 -0.43407,0.006 -0.51097,0.004 -0.52646,-0.0149 z m -4.09119,-1.05289 -0.056,-0.0574 -0.045,0.0241 c -0.0316,0.0169 -0.0926,0.0258 -0.20475,0.0296 -0.19116,0.007 -0.28343,-0.0206 -0.39132,-0.11557 -0.11133,-0.0979 -0.14056,-0.17388 -0.15288,-0.39654 -0.0162,-0.29401 10e-4,-0.57894 0.0423,-0.6719 0.0387,-0.0886 0.13365,-0.1819 0.23067,-0.22672 0.0576,-0.0267 0.0942,-0.0314 0.24218,-0.0314 0.15817,0 0.18188,0.004 0.25631,0.0384 0.094,0.0441 0.18344,0.12719 0.22019,0.20465 0.0456,0.0963 0.0566,0.21064 0.0507,0.5337 -0.005,0.2558 -0.0106,0.32279 -0.0308,0.36955 l -0.0252,0.0571 0.0513,0.0524 c 0.0309,0.0316 0.0511,0.0668 0.0511,0.0888 0,0.0442 -0.11087,0.15854 -0.15373,0.15854 -0.0161,0 -0.0544,-0.0259 -0.0851,-0.0574 z m -0.28394,-0.274 c 0,-0.007 -0.0196,-0.0306 -0.0436,-0.0535 -0.0591,-0.0566 -0.0563,-0.10181 0.0106,-0.17003 0.0661,-0.0676 0.122,-0.073 0.18007,-0.0173 l 0.0394,0.0377 0.0106,-0.11333 c 0.0119,-0.12732 2.3e-4,-0.3487 -0.0224,-0.429 -0.0292,-0.10287 -0.16953,-0.191 -0.26577,-0.16684 -0.0596,0.0149 -0.13025,0.0731 -0.1613,0.13272 -0.0261,0.0501 -0.031,0.0897 -0.0355,0.28758 -0.007,0.31702 0.0239,0.41951 0.1457,0.47952 0.0504,0.0248 0.14262,0.033 0.14262,0.0127 z m -12.90033,0.25746 c -0.12732,-0.03 -0.28677,-0.13733 -0.28677,-0.19302 0,-0.0189 0.0283,-0.0598 0.0695,-0.1004 0.0811,-0.0798 0.12574,-0.0871 0.19754,-0.0324 0.15008,0.11451 0.41699,0.10217 0.48133,-0.0222 0.027,-0.0522 0.0269,-0.0771 -5.9e-4,-0.13041 -0.0313,-0.0604 -0.0798,-0.0805 -0.25972,-0.10722 -0.33162,-0.0493 -0.42908,-0.14349 -0.42943,-0.41513 -1.4e-4,-0.1151 0.006,-0.15 0.0341,-0.2106 0.0421,-0.089 0.0953,-0.14056 0.1905,-0.18439 0.0649,-0.0299 0.0944,-0.0335 0.27595,-0.0335 0.18095,0 0.21122,0.004 0.27514,0.0331 0.18273,0.0843 0.20805,0.14263 0.10675,0.24591 -0.0722,0.0735 -0.11651,0.0796 -0.197,0.0267 -0.12468,-0.0819 -0.2718,-0.0764 -0.36189,0.0136 -0.0624,0.0624 -0.0648,0.12364 -0.007,0.1815 0.0456,0.0456 0.0827,0.0574 0.31353,0.0998 0.19418,0.0356 0.25825,0.0741 0.31703,0.18993 0.0354,0.0698 0.04,0.0948 0.04,0.21973 0,0.12558 -0.005,0.14932 -0.04,0.21746 -0.0464,0.089 -0.14123,0.16172 -0.25449,0.19535 -0.0818,0.0243 -0.37116,0.0282 -0.46445,0.006 z m 5.87406,-0.0106 c -0.14716,-0.0523 -0.26301,-0.18244 -0.29361,-0.32986 -0.0106,-0.0516 -0.0149,-0.20116 -0.0119,-0.4174 0.005,-0.33559 0.005,-0.33737 0.0456,-0.42016 0.0449,-0.0913 0.12228,-0.16586 0.22588,-0.2174 0.0595,-0.0296 0.0884,-0.0335 0.24887,-0.0335 0.16044,0 0.18936,0.004 0.24887,0.0335 0.10358,0.0515 0.18103,0.12608 0.22588,0.2174 l 0.0408,0.0831 v 0.38488 0.38486 l -0.0403,0.0822 c -0.0467,0.0951 -0.13071,0.17674 -0.22652,0.22018 -0.097,0.044 -0.35496,0.0508 -0.46354,0.0121 z m 0.32475,-0.27078 c 0.0426,-0.0249 0.0721,-0.0574 0.0957,-0.10534 0.0314,-0.0638 0.0341,-0.0871 0.0341,-0.30155 0,-0.12781 -0.005,-0.25703 -0.0118,-0.28715 -0.0208,-0.0983 -0.13755,-0.19939 -0.23023,-0.19939 -0.0664,0 -0.15663,0.0587 -0.19769,0.12848 -0.0394,0.0671 -0.0397,0.0696 -0.0397,0.33627 0,0.25969 0.001,0.27085 0.0363,0.3336 0.042,0.075 0.12774,0.13054 0.20201,0.13091 0.0273,1.3e-4 0.0772,-0.016 0.1111,-0.0359 z m 7.68696,0.26387 c -0.0989,-0.0416 -0.14874,-0.0792 -0.20357,-0.15381 -0.0825,-0.11216 -0.0848,-0.13108 -0.0848,-0.7148 v -0.53553 h 0.13796 0.13798 l 5.8e-4,0.48289 c 2.3e-4,0.43709 0.002,0.48846 0.027,0.54159 0.0298,0.0655 0.10146,0.13268 0.15625,0.14643 0.10346,0.026 0.22508,-0.0337 0.27553,-0.13532 0.025,-0.0503 0.0279,-0.0991 0.0319,-0.54543 l 0.005,-0.49016 h 0.1379 0.13791 l -0.005,0.54825 c -0.005,0.54075 -0.005,0.54929 -0.0386,0.62417 -0.0403,0.0891 -0.13632,0.18282 -0.23181,0.22618 -0.0538,0.0245 -0.10263,0.0317 -0.23493,0.0354 -0.14922,0.005 -0.17575,9.3e-4 -0.24903,-0.0299 z m -22.88648,-0.6925 v -0.71164 h 0.14523 0.14523 v 0.5882 0.58818 h 0.32678 0.32677 v 0.12344 0.12346 h -0.472 -0.47201 z m 1.33614,0 v -0.71164 h 0.47201 0.472 v 0.12344 0.12345 h -0.33404 -0.33403 v 0.16703 0.16701 h 0.28321 0.2832 v 0.12344 0.12345 h -0.2832 -0.28321 v 0.17428 0.17428 h 0.33403 0.33404 v 0.12344 0.12346 h -0.472 -0.47201 z m 0.98758,0.68117 c 0,-0.0168 0.0886,-0.17807 0.19706,-0.35846 0.1084,-0.18038 0.19434,-0.33823 0.19101,-0.35076 -0.004,-0.0125 -0.0855,-0.15627 -0.18254,-0.31943 -0.0971,-0.16316 -0.17649,-0.31183 -0.17649,-0.33041 0,-0.0333 0.002,-0.0337 0.15674,-0.0337 h 0.15674 l 0.0977,0.17911 c 0.14557,0.26697 0.11826,0.26408 0.24804,0.0262 l 0.11205,-0.20533 h 0.15899 c 0.15229,0 0.15901,0.001 0.15901,0.0308 0,0.0169 -0.0848,0.17319 -0.18839,0.34725 l -0.18839,0.31647 0.20291,0.33428 c 0.11157,0.18386 0.20291,0.34804 0.20291,0.36488 0,0.0295 -0.006,0.0305 -0.16175,0.0265 l -0.16175,-0.004 -0.12691,-0.22214 -0.12692,-0.22214 -0.12645,0.22577 -0.12643,0.22578 h -0.15856 c -0.15135,0 -0.15856,-10e-4 -0.15856,-0.0304 z m 1.26352,-0.68206 v -0.71254 l 0.37398,0.005 c 0.35345,0.005 0.37725,0.006 0.43401,0.0367 0.0812,0.0435 0.14903,0.11392 0.18557,0.19283 0.0247,0.0533 0.0303,0.0939 0.0303,0.21801 0,0.1422 -0.002,0.15784 -0.0436,0.23149 -0.0459,0.0832 -0.129,0.15321 -0.22253,0.18747 -0.0302,0.0106 -0.14326,0.023 -0.26038,0.0274 l -0.20695,0.008 v 0.25943 0.2594 h -0.14524 -0.14523 z m 0.63761,-0.10828 c 0.14173,-0.083 0.1425,-0.2356 10e-4,-0.31812 -0.0359,-0.0209 -0.0849,-0.0295 -0.19817,-0.0346 l -0.15055,-0.007 v 0.19961 0.19962 l 0.14896,-0.006 c 0.11522,-0.005 0.16013,-0.012 0.19819,-0.0343 z m 0.56782,0.1091 v -0.71164 h 0.472 0.47201 v 0.12344 0.12345 h -0.33403 -0.33404 v 0.16702 0.16702 h 0.29047 0.29046 v 0.12344 0.12345 h -0.29046 -0.29047 v 0.17428 0.17428 h 0.33404 0.33403 v 0.12344 0.12346 h -0.47201 -0.472 z m 1.16186,-9.1e-4 v -0.71253 l 0.37397,0.005 c 0.35345,0.005 0.37726,0.006 0.43402,0.0367 0.14808,0.0792 0.19916,0.1722 0.20572,0.37455 0.005,0.13541 0.002,0.15061 -0.0361,0.22501 -0.036,0.0703 -0.12584,0.15913 -0.17874,0.17677 -0.009,0.004 0.0432,0.11839 0.12263,0.26987 0.0763,0.14548 0.13872,0.28097 0.13872,0.30111 v 0.0366 h -0.1563 -0.1563 l -0.14138,-0.2832 -0.14138,-0.28321 h -0.0944 -0.0944 v 0.28321 0.2832 h -0.13796 -0.13798 v -0.71253 z m 0.59825,-0.11784 c 0.061,-0.0182 0.12241,-0.0795 0.13662,-0.13603 0.0126,-0.05 -0.0361,-0.13868 -0.0944,-0.17228 -0.0381,-0.022 -0.0856,-0.03 -0.20695,-0.0349 l -0.15754,-0.007 v 0.1834 0.18341 h 0.13266 c 0.073,0 0.1583,-0.008 0.18966,-0.017 z m 0.91216,0.24218 v -0.58819 h -0.1888 -0.18881 v -0.12345 -0.12344 h 0.51558 0.51558 v 0.12344 0.12345 h -0.18881 -0.1888 v 0.58819 0.58818 h -0.13797 -0.13797 z m 0.8133,-0.12349 v -0.71163 h 0.13798 0.13796 v 0.71163 0.71164 h -0.13796 -0.13798 z m 1.69922,0 v -0.71163 h 0.47201 0.472 v 0.12345 0.12344 h -0.33403 -0.33404 v 0.16702 0.16702 h 0.28321 0.2832 v 0.12345 0.12344 h -0.2832 -0.28321 v 0.17428 0.17428 h 0.33404 0.33403 v 0.12345 0.12344 h -0.472 -0.47201 z m 1.61208,0 v -0.71163 h 0.13797 0.13797 v 0.71163 0.71164 h -0.13797 -0.13797 z m 0.55188,0 v -0.71163 h 0.13626 0.13626 l 0.27402,0.41703 0.27402,0.41703 0.004,-0.41703 0.004,-0.41703 h 0.13775 0.13775 v 0.71163 0.71164 l -0.13434,-2.2e-4 -0.13435,-2.4e-4 -0.26867,-0.41169 -0.26868,-0.41169 -0.004,0.41211 -0.004,0.41212 h -0.145 -0.14502 v -0.71165 z m 1.39424,0 v -0.71163 h 0.472 0.47201 v 0.12345 0.12344 h -0.33403 -0.33404 v 0.17428 0.17428 h 0.2832 0.28321 v 0.13071 0.13071 h -0.28321 -0.2832 v 0.28319 0.28321 h -0.13798 -0.13796 z m 2.30918,0 v -0.71163 h 0.35324 c 0.4154,0 0.45518,0.008 0.564,0.1171 0.0884,0.0884 0.12018,0.18773 0.11099,0.34699 -0.008,0.14172 -0.0593,0.24287 -0.15448,0.30592 -0.036,0.0239 -0.0701,0.0434 -0.0757,0.0434 -0.006,0 0.0543,0.12404 0.13319,0.27564 0.0789,0.1516 0.14353,0.28885 0.14353,0.30499 0,0.0276 -0.009,0.0293 -0.15981,0.0293 h -0.15981 l -0.14137,-0.2832 -0.14139,-0.28319 h -0.091 -0.0909 v 0.28319 0.2832 h -0.14523 -0.14524 z m 0.64967,-0.13525 c 0.0965,-0.0514 0.11857,-0.1664 0.0475,-0.24738 -0.0534,-0.0608 -0.12865,-0.0821 -0.28965,-0.0821 h -0.11698 v 0.18314 0.18316 l 0.15613,-0.006 c 0.11063,-0.005 0.16982,-0.0132 0.20307,-0.0309 z m 0.61386,0.13473 v -0.71217 l 0.14059,0.005 0.14058,0.005 0.17465,0.3739 c 0.096,0.20564 0.17928,0.36902 0.18497,0.36307 0.006,-0.006 0.0855,-0.1742 0.17727,-0.37389 l 0.16695,-0.36308 0.13925,-0.005 0.13926,-0.005 v 0.71217 0.71216 h -0.13772 -0.13772 l -0.004,-0.36475 -0.004,-0.36475 -0.11216,0.23767 -0.11215,0.23768 -0.1171,0.005 -0.1171,0.005 -0.12278,-0.25112 -0.12279,-0.25112 -1.3e-4,0.37396 -1.4e-4,0.37398 h -0.13799 -0.13796 v -0.71217 z m 1.39423,0.67149 c 0,-0.0223 0.11016,-0.34097 0.24492,-0.708 l 0.24492,-0.66734 0.12298,-0.005 0.12298,-0.005 0.24934,0.68076 c 0.13714,0.37441 0.24934,0.69488 0.24934,0.71216 0,0.0302 -0.006,0.0314 -0.14977,0.0314 h -0.14975 l -0.0417,-0.13072 -0.0417,-0.13071 h -0.23577 -0.23578 l -0.0176,0.0544 c -0.009,0.03 -0.0302,0.0888 -0.0457,0.13071 l -0.0281,0.0763 h -0.14419 -0.14418 z m 0.69292,-0.68534 c -0.0416,-0.11974 -0.0783,-0.20959 -0.0813,-0.19969 -0.004,0.009 -0.0373,0.1078 -0.0757,0.21769 l -0.0701,0.1997 h 0.15146 0.15146 z m 0.80297,0.13783 v -0.58812 h -0.1888 -0.1888 v -0.12345 -0.12345 h 0.51557 0.51558 v 0.12345 0.12345 h -0.1888 -0.1888 v 0.58819 0.58819 h -0.13798 -0.13797 z m 0.81331,-0.12346 v -0.71163 h 0.13796 0.13798 v 0.71163 0.71164 h -0.13798 -0.13796 z m 3.09345,0 v -0.71163 h 0.472 0.472 v 0.12345 0.12344 h -0.33402 -0.33404 v 0.16702 0.16702 h 0.2832 0.28321 v 0.12345 0.12344 h -0.28321 -0.2832 v 0.17428 0.17428 h 0.33404 0.33402 v 0.12345 0.12344 h -0.472 -0.472 z m -23.121,-0.49373 v -0.21785 h 0.14524 0.14523 v 0.13569 0.13569 l -0.10381,0.0822 c -0.0713,0.0563 -0.11686,0.0822 -0.14524,0.0822 h -0.0414 z m 1.68084,-0.87175 c -0.0884,-0.0223 -0.16047,-0.0655 -0.22361,-0.13398 -0.0931,-0.10099 -0.0993,-0.13297 -0.0993,-0.51194 0,-0.31958 0.001,-0.33698 0.0335,-0.4021 0.0405,-0.0821 0.12771,-0.16395 0.21885,-0.20533 0.0541,-0.0246 0.0952,-0.0303 0.21238,-0.0301 0.15879,4.7e-4 0.23339,0.0233 0.32229,0.0984 0.0646,0.0546 0.13518,0.20091 0.13518,0.27998 v 0.063 h -0.12955 -0.12956 l -0.009,-0.0444 c -0.0133,-0.0603 -0.0968,-0.14082 -0.15809,-0.15232 -0.0636,-0.012 -0.10064,1.7e-4 -0.16024,0.0525 -0.0704,0.0618 -0.0845,0.13144 -0.0787,0.38817 0.006,0.24197 0.0134,0.26496 0.11381,0.33329 0.0968,0.0658 0.21212,0.023 0.274,-0.10169 l 0.0342,-0.069 h 0.1219 0.12191 v 0.0555 c 0,0.13978 -0.0909,0.27886 -0.22526,0.34459 -0.0617,0.0302 -0.10581,0.04 -0.19932,0.044 -0.0661,0.002 -0.14464,-0.001 -0.17473,-0.008 z m 1.04881,-0.004 c -0.13022,-0.0369 -0.22278,-0.11533 -0.27807,-0.23531 -0.0317,-0.069 -0.0335,-0.089 -0.0335,-0.39938 0,-0.31267 10e-4,-0.33007 0.0344,-0.4029 0.0399,-0.0883 0.12241,-0.16843 0.21797,-0.21174 0.0534,-0.0242 0.0968,-0.0306 0.21236,-0.031 0.13028,-4.7e-4 0.15379,0.004 0.22823,0.0402 0.10228,0.0501 0.18968,0.14654 0.21644,0.2386 0.0282,0.097 0.0281,0.63712 -1.8e-4,0.73434 -0.0274,0.0944 -0.12457,0.20032 -0.22222,0.24233 -0.0936,0.0402 -0.27823,0.0525 -0.37547,0.0249 z m 0.24831,-0.26077 c 0.0966,-0.0651 0.10828,-0.10523 0.10828,-0.37393 0,-0.26372 -0.0106,-0.30278 -0.0991,-0.36882 -0.0881,-0.0656 -0.21409,-0.0295 -0.27851,0.0798 -0.0259,0.044 -0.029,0.0755 -0.029,0.28894 0,0.21557 0.004,0.24474 0.0299,0.29042 0.0384,0.0654 0.11439,0.11628 0.17349,0.11628 0.0256,0 0.0684,-0.0147 0.0951,-0.0327 z m 9.92934,0.26474 c -0.13747,-0.0347 -0.26924,-0.15005 -0.30474,-0.26673 -0.0263,-0.0864 -0.0248,-0.64666 10e-4,-0.7388 0.0267,-0.0917 0.11416,-0.18851 0.21534,-0.23799 0.0709,-0.0347 0.0997,-0.0401 0.21371,-0.0404 0.15669,-2.2e-4 0.23237,0.0196 0.31619,0.0835 0.14527,0.11075 0.16424,0.17755 0.16387,0.5763 -2.4e-4,0.29609 -0.002,0.31618 -0.0344,0.38837 -0.0395,0.0883 -0.12252,0.16891 -0.21649,0.21048 -0.0756,0.0335 -0.26866,0.0471 -0.35538,0.0253 z m 0.23693,-0.26474 c 0.0863,-0.0582 0.10605,-0.11134 0.11286,-0.30332 0.0106,-0.29813 -0.017,-0.39279 -0.13205,-0.45215 -0.0698,-0.036 -0.13871,-0.0248 -0.20504,0.0335 -0.0711,0.0624 -0.0851,0.13134 -0.0792,0.38874 0.005,0.19455 0.008,0.22318 0.0354,0.25964 0.0768,0.10346 0.18115,0.13215 0.26803,0.0736 z m 4.13432,0.26468 c -0.0738,-0.0186 -0.1303,-0.049 -0.19262,-0.10381 -0.10499,-0.0922 -0.13673,-0.21626 -0.13673,-0.53483 0,-0.32744 0.035,-0.45172 0.15507,-0.55069 0.0817,-0.0674 0.17885,-0.095 0.33088,-0.0942 0.10345,4.7e-4 0.14651,0.007 0.20643,0.0339 0.0899,0.0395 0.19508,0.14622 0.22358,0.22697 0.0288,0.0815 0.0288,0.68664 0,0.76812 -0.0287,0.0812 -0.1337,0.18765 -0.22323,0.22616 -0.0852,0.0367 -0.27253,0.0514 -0.36338,0.0285 z m 0.23662,-0.26464 c 0.10041,-0.0683 0.10828,-0.0913 0.11381,-0.33328 0.006,-0.2574 -0.008,-0.32632 -0.0792,-0.38874 -0.0663,-0.0582 -0.13527,-0.0695 -0.20505,-0.0335 -0.11498,0.0594 -0.14269,0.15402 -0.13205,0.45214 0.007,0.19198 0.0267,0.24518 0.11286,0.30332 0.0617,0.0416 0.12855,0.0416 0.18965,4e-5 z m -18.31395,-0.37397 v -0.63902 h 0.13071 0.13071 v 0.52284 0.52283 h 0.29047 0.29046 v 0.11615 0.11616 h -0.42117 -0.42118 z m 1.17639,0 v -0.63902 h 0.42117 0.42118 v 0.11615 0.11616 h -0.29774 -0.29772 v 0.14523 0.14524 h 0.25415 0.25417 v 0.11615 0.11616 h -0.25417 -0.25415 v 0.14523 0.14523 h 0.29772 0.29774 v 0.11615 0.11616 h -0.42118 -0.42117 z m 3.18059,0 v -0.63902 h 0.12344 0.12346 v 0.52284 0.52283 h 0.29046 0.29046 v 0.11615 0.11616 h -0.41391 -0.41391 z m 0.95853,0 v -0.63902 h 0.42118 0.42116 v 0.11615 0.11616 h -0.29045 -0.29047 v 0.14523 0.14524 h 0.25415 0.25417 v 0.11615 0.11616 h -0.25417 -0.25415 v 0.14523 0.14523 h 0.29047 0.29045 v 0.11615 0.11616 h -0.42116 -0.42118 z m 1.43781,-0.001 v -0.64005 l 0.30861,0.005 c 0.28896,0.005 0.31351,0.007 0.3855,0.0394 0.0929,0.042 0.16713,0.12462 0.2022,0.22509 0.0215,0.0616 0.0259,0.12336 0.0259,0.36467 0,0.35602 -0.0154,0.42362 -0.12067,0.52842 -0.10475,0.10428 -0.16383,0.11786 -0.51276,0.11786 h -0.28879 v -0.64005 z m 0.48329,0.39229 c 0.0302,-0.008 0.0771,-0.0347 0.10416,-0.0585 0.0629,-0.0553 0.0808,-0.13384 0.0799,-0.35157 -10e-4,-0.2942 -0.0597,-0.36936 -0.29979,-0.38434 l -0.12074,-0.007 v 0.40869 0.4087 l 0.0908,-8e-5 c 0.05,-5e-5 0.11545,-0.007 0.14563,-0.0153 z m 0.63499,-0.39125 v -0.63903 h 0.42117 0.42117 v 0.11615 0.11616 h -0.29046 -0.29046 v 0.14523 0.14523 h 0.25416 0.25415 v 0.11615 0.11616 h -0.25415 -0.25416 v 0.14523 0.14524 h 0.29046 0.29046 v 0.11615 0.11616 h -0.42117 -0.42117 z m 1.4378,0 v -0.63903 h 0.12345 0.12344 v 0.52284 0.52284 h 0.29047 0.29046 v 0.11615 0.11616 h -0.4139 -0.41392 z m 1.16186,0 v -0.63903 h 0.13071 0.13071 v 0.63903 0.63902 h -0.13071 -0.13071 z m 0.50831,0 v -0.63903 h 0.11686 0.11686 l 0.24621,0.37351 0.2462,0.3735 v -0.3735 -0.37351 h 0.12346 0.12345 v 0.63903 0.63902 l -0.11982,-1.3e-4 -0.11982,-1.4e-4 -0.23963,-0.36597 -0.23964,-0.36598 -0.004,0.3661 -0.004,0.36609 h -0.1232 -0.1232 v -0.63902 z m 1.21995,0 v -0.63903 l 0.11982,4.7e-4 0.11981,4.6e-4 0.23964,0.36617 0.23963,0.36618 0.004,-0.36643 0.004,-0.36642 h 0.12319 0.1232 v 0.63902 0.63902 l -0.11981,-4.6e-4 -0.11981,-4.7e-4 -0.23964,-0.36752 -0.23963,-0.36753 -0.004,0.36806 -0.004,0.36806 h -0.12319 -0.1232 v -0.63903 z m 2.34689,0.0381 c -0.10863,-0.33111 -0.19744,-0.61894 -0.19744,-0.6396 v -0.0376 h 0.13008 0.13009 l 0.0887,0.27958 c 0.0488,0.15376 0.10345,0.32502 0.12142,0.38056 l 0.0328,0.10099 0.0668,-0.20991 c 0.0367,-0.11545 0.0911,-0.28669 0.12096,-0.38055 l 0.0542,-0.17065 h 0.13585 c 0.11981,0 0.1358,0.004 0.13553,0.0254 -1.8e-4,0.014 -0.0909,0.2999 -0.20159,0.63539 l -0.20129,0.60998 -0.10922,0.005 -0.10934,0.005 z m 0.703,0.56473 c 0,-0.0199 0.0995,-0.30743 0.22091,-0.63901 l 0.22092,-0.6029 h 0.10969 0.10969 l 0.22166,0.60635 c 0.12192,0.33348 0.22151,0.62105 0.22132,0.63901 -2.4e-4,0.0315 -0.005,0.0327 -0.13534,0.0327 h -0.13498 l -0.0402,-0.12345 -0.0402,-0.12345 h -0.20152 -0.20152 l -0.0402,0.12345 -0.0402,0.12345 h -0.13498 c -0.13412,0 -0.13498,-1.8e-4 -0.13498,-0.0361 z m 0.61959,-0.60206 c -0.0333,-0.0953 -0.0643,-0.16893 -0.0691,-0.16338 -0.0106,0.0127 -0.11474,0.30523 -0.11474,0.3234 0,0.007 0.055,0.0134 0.12217,0.0134 h 0.12219 z m 0.70201,0.11533 v -0.52282 h -0.16701 -0.16702 v -0.11616 -0.11615 h 0.46474 0.46475 v 0.11615 0.11616 h -0.16702 -0.16702 v 0.52282 0.52284 h -0.13071 -0.13071 z m 0.72617,-0.11615 v -0.63903 h 0.13071 0.13071 v 0.63903 0.63902 h -0.13071 -0.13071 z m 1.59755,0 v -0.63902 h 0.11686 0.11686 l 0.24621,0.37351 0.24622,0.37351 v -0.37351 -0.37351 h 0.12344 0.12345 v 0.63903 0.63902 l -0.11982,-9e-5 -0.11982,-10e-5 -0.23962,-0.36571 -0.23964,-0.36573 -0.004,0.36581 -0.004,0.36582 h -0.1232 -0.1232 v -0.63903 z m 1.62661,0 v -0.63903 h 0.42117 0.42118 v 0.11615 0.11616 h -0.29773 -0.29773 v 0.14523 0.14523 h 0.25416 0.25416 v 0.11615 0.11616 h -0.25416 -0.25416 v 0.14523 0.14524 h 0.29773 0.29773 v 0.11615 0.11616 h -0.42118 -0.42117 z m 1.249,0.11615 v -0.52282 h -0.16702 -0.16702 v -0.11616 -0.11615 h 0.45748 0.45749 v 0.11615 0.11616 h -0.16702 -0.16702 v 0.52282 0.52284 h -0.12345 -0.12344 z m 1.11829,-0.11744 v -0.64026 l 0.31587,0.005 c 0.35303,0.006 0.39729,0.0158 0.49631,0.11474 0.10216,0.10217 0.11004,0.13943 0.11004,0.52172 v 0.3413 l -0.0415,0.0845 c -0.0268,0.0547 -0.0623,0.0997 -0.1004,0.12722 -0.10134,0.0734 -0.17331,0.0859 -0.49246,0.0859 h -0.28783 z m 0.5129,0.38684 c 0.12086,-0.0431 0.15419,-0.10887 0.16525,-0.32612 0.0176,-0.3466 -0.0462,-0.44712 -0.29381,-0.46256 l -0.12292,-0.008 v 0.40869 0.4087 l 0.0981,-4.7e-4 c 0.054,-2.3e-4 0.12297,-0.009 0.15346,-0.0203 z m 0.61991,-0.38561 v -0.63903 h 0.42118 0.42116 v 0.11616 0.11615 h -0.29045 -0.29047 v 0.14523 0.14523 h 0.2469 0.24688 v 0.11615 0.11616 h -0.24688 -0.2469 v 0.14523 0.14524 h 0.29047 0.29045 v 0.11616 0.11615 h -0.42116 -0.42118 z m -14.02945,-0.4357 v -0.20333 h 0.13071 0.13071 v 0.12946 0.12946 l -0.0929,0.0738 c -0.0581,0.0462 -0.10698,0.0738 -0.13071,0.0738 h -0.0378 z m -9.29487,-0.0145 v -0.20333 h 0.13071 0.13071 l -3.4e-4,0.12708 -3.4e-4,0.12707 -0.0939,0.0763 c -0.0576,0.0468 -0.10804,0.0762 -0.13039,0.0762 h -0.0364 z m 2.94859,-2.29831 c 5e-4,-0.98084 0.0128,-1.11521 0.12445,-1.35923 0.13934,-0.3045 0.36811,-0.49713 0.69574,-0.58583 0.11016,-0.0299 0.15646,-0.0319 0.88833,-0.0399 l 0.77214,-0.008 0.0615,-0.0436 c 0.18242,-0.12938 0.20085,-0.39237 0.0391,-0.55847 -0.0892,-0.0916 -0.0352,-0.0878 -1.25006,-0.0878 -0.61011,0 -1.1593,-0.005 -1.22042,-0.009 l -0.1111,-0.009 v -0.49166 -0.49166 l 1.35429,4.7e-4 c 1.46016,4.6e-4 1.46947,10e-4 1.67179,0.0778 0.35248,0.13378 0.6326,0.49544 0.71553,0.92382 0.032,0.16512 0.0407,0.4086 0.0208,0.57935 -0.0671,0.57648 -0.39383,0.99015 -0.87233,1.10464 -0.11286,0.027 -0.17161,0.0296 -0.68258,0.0301 -0.30753,2.2e-4 -0.60743,0.007 -0.66644,0.0145 -0.19461,0.0253 -0.33451,0.11416 -0.42239,0.26838 -0.077,0.13511 -0.0785,0.15216 -0.0742,0.83146 l 0.004,0.62812 h -0.52424 -0.52424 z m 4.08065,-1.46322 v -2.22206 h 0.52284 0.52284 v 2.22206 2.22206 h -0.52284 -0.52284 z m 2.22206,0.50105 v -1.721 h -0.49379 -0.49379 v -0.50105 -0.50106 l 1.12192,3e-5 c 0.61706,2e-5 1.29348,0.005 1.50316,0.009 l 0.38123,0.009 v 0.49146 0.49145 h -0.49379 -0.49379 v 1.72102 1.721 h -0.51557 -0.51558 v -1.721 z m -9.51998,1.68244 c -0.33178,-0.0708 -0.60484,-0.28884 -0.76964,-0.61465 -0.0985,-0.19475 -0.1389,-0.37487 -0.14827,-0.66113 -0.0106,-0.33691 0.0322,-0.55195 0.16085,-0.80043 l 0.061,-0.11783 -0.0478,-0.0855 c -0.0609,-0.10898 -0.12835,-0.31718 -0.15828,-0.48889 -0.0282,-0.16217 -0.0209,-0.49879 0.0145,-0.66031 0.0584,-0.26688 0.16585,-0.46487 0.35753,-0.6592 0.12086,-0.12252 0.15508,-0.14805 0.27594,-0.20583 0.0758,-0.0363 0.19024,-0.0772 0.25413,-0.0911 0.13451,-0.0291 0.16897,-0.0296 1.77548,-0.0242 l 1.09289,0.004 v 0.49339 0.49339 l -1.2236,0.004 -1.22358,0.004 -0.0603,0.0322 c -0.0785,0.042 -0.14069,0.11875 -0.17019,0.21009 -0.0292,0.0904 -0.0296,0.13182 -0.002,0.22339 0.027,0.0908 0.0977,0.17664 0.17367,0.21116 0.056,0.0254 0.12383,0.0269 1.28269,0.0272 l 1.22359,2.2e-4 v 0.50832 0.50831 h -1.24615 -1.24613 l -0.0603,0.0443 c -0.0691,0.0509 -0.1293,0.16102 -0.14305,0.2621 -0.0211,0.15471 0.0839,0.33189 0.22104,0.37284 0.0453,0.0135 0.3539,0.0179 1.26717,0.0179 h 1.20736 v 0.50832 0.50831 l -1.38334,-0.001 c -1.16838,-10e-4 -1.39913,-0.005 -1.485,-0.0229 z m 17.02849,-0.005 c -0.16972,-0.0362 -0.30391,-0.0932 -0.45071,-0.19136 -0.39157,-0.26192 -0.69744,-0.80074 -0.79126,-1.39392 -0.0324,-0.20536 -0.0446,-0.70305 -0.0223,-0.92199 0.0651,-0.64138 0.28735,-1.15375 0.65373,-1.50694 0.20712,-0.19966 0.44863,-0.31744 0.73142,-0.3567 0.0738,-0.0106 0.51254,-0.0158 1.25262,-0.0158 h 1.13903 v 0.49324 0.49325 l -1.04205,0.005 -1.04204,0.005 -0.0845,0.0341 c -0.23481,0.0948 -0.4258,0.40547 -0.49575,0.80659 -0.0287,0.16433 -0.0292,0.49791 -8.3e-4,0.66973 0.0696,0.4245 0.24467,0.73323 0.48268,0.85144 l 0.0695,0.0344 1.05656,0.004 1.05657,0.004 v 0.50795 0.50795 l -1.19454,-10e-4 c -1.09599,-9.1e-4 -1.20471,-0.004 -1.31799,-0.0274 z m 2.83204,-2.17915 v -2.20753 h 0.37537 c 0.20645,0 0.4352,0.005 0.50832,0.009 l 0.13293,0.009 v 0.84017 0.84017 h 0.82783 0.82782 v -0.84235 -0.84234 h 0.51558 0.51558 v 2.20027 2.20026 h -0.51558 -0.51558 v -0.85686 -0.85687 h -0.82782 -0.82783 v 0.85687 0.85686 h -0.50831 -0.50831 z m -7.11885,2.17814 c -0.46376,-0.0783 -0.80287,-0.41391 -0.92833,-0.91887 -0.044,-0.17709 -0.0541,-0.5251 -0.0209,-0.72325 0.028,-0.16741 0.0851,-0.33807 0.15397,-0.46012 l 0.0453,-0.0802 -0.0588,-0.1177 c -0.0684,-0.13709 -0.12313,-0.31744 -0.14811,-0.4882 -0.0243,-0.16648 -0.009,-0.50877 0.0283,-0.66065 0.11887,-0.47511 0.42816,-0.80751 0.84395,-0.907 0.11954,-0.0286 0.16622,-0.0295 1.47773,-0.0296 l 1.35429,-9e-5 v 0.49379 0.49378 l -1.18727,1.5e-4 -1.18728,1.5e-4 -0.0743,0.0346 c -0.24634,0.11475 -0.25875,0.51143 -0.0199,0.63332 0.0553,0.0282 0.0872,0.0289 1.26268,0.0289 h 1.20601 v 0.50832 0.50831 h -1.22989 -1.22988 l -0.0678,0.0703 c -0.146,0.15146 -0.15384,0.37837 -0.018,0.51831 0.096,0.0989 0.0243,0.0939 1.34687,0.0939 h 1.19863 v 0.50831 0.50832 l -1.33977,-0.001 c -0.73687,-9.1e-4 -1.37028,-0.007 -1.40757,-0.0132 z m 11.93868,-0.0289 c -0.16107,-0.0272 -0.30858,-0.13714 -0.38406,-0.28618 -0.0402,-0.0795 -0.0424,-0.0936 -0.0424,-0.26545 0,-0.16884 0.002,-0.18726 0.0401,-0.26323 0.0447,-0.091 0.14977,-0.19748 0.24073,-0.24389 0.0906,-0.0462 0.25494,-0.0675 0.37212,-0.0481 0.13055,0.0216 0.21836,0.0667 0.30789,0.15791 0.0945,0.0963 0.13715,0.20166 0.14663,0.36227 0.0181,0.30762 -0.15904,0.53918 -0.44856,0.58616 -0.10346,0.0168 -0.13537,0.0168 -0.23237,4.7e-4 z"
       id="path1095"
       inkscape:connector-curvature="0"
       style="fill:#ffffff;fill-opacity:1;stroke-width:0.01452323"
       transform="translate(295.36144,-305.9077)" />
  </g>
</svg>
