<?xml version="1.0" encoding="UTF-8" standalone="no"?>
<!-- Created with Inkscape (http://www.inkscape.org/) -->

<svg
   xmlns:dc="http://purl.org/dc/elements/1.1/"
   xmlns:cc="http://creativecommons.org/ns#"
   xmlns:rdf="http://www.w3.org/1999/02/22-rdf-syntax-ns#"
   xmlns:svg="http://www.w3.org/2000/svg"
   xmlns="http://www.w3.org/2000/svg"
   xmlns:sodipodi="http://sodipodi.sourceforge.net/DTD/sodipodi-0.dtd"
   xmlns:inkscape="http://www.inkscape.org/namespaces/inkscape"
   height="40.411514"
   id="svg5164"
   inkscape:version="0.92.2 5c3e80d, 2017-08-06"
   sodipodi:docname="gltf2.svg"
   version="1.1"
   viewBox="0 0 20.432359 10.692213"
   width="77.22467">
  <defs
     id="defs5158" />
  <sodipodi:namedview
     bordercolor="#666666"
     borderopacity="1.0"
     fit-margin-bottom="16"
     fit-margin-left="16"
     fit-margin-right="16"
     fit-margin-top="16"
     id="base"
     inkscape:current-layer="gltf2"
     inkscape:cx="15.86815"
     inkscape:cy="10.068124"
     inkscape:document-units="mm"
     inkscape:pageopacity="0.0"
     inkscape:pageshadow="2"
     inkscape:window-height="1051"
     inkscape:window-maximized="1"
     inkscape:window-width="1920"
     inkscape:window-x="0"
     inkscape:window-y="0"
     inkscape:zoom="3.959798"
     pagecolor="#ffffff"
     showgrid="false"
     units="px" />
  <metadata
     id="metadata5161">
    <rdf:RDF>
      <cc:Work
         rdf:about="">
        <dc:format>image/svg+xml</dc:format>
        <dc:type
           rdf:resource="http://purl.org/dc/dcmitype/StillImage" />
        <dc:title />
      </cc:Work>
    </rdf:RDF>
  </metadata>
  <g
     id="gltf2"
     inkscape:groupmode="layer"
     inkscape:label="gltf2"
     transform="translate(-7.8113267,-3.0401942)">
    <g
       id="g17984"
       transform="matrix(0.26685082,0,0,0.26685082,-72.981909,-60.57169)">
      <g
         id="g20"
         transform="matrix(0.0890383,0,0,0.0890383,296.2524,236.15399)">
        <g
           id="g6">
          <path
             d="m 419.67,403.73 c 14.76,-16.55 22.56,-40.74 22.56,-73.32 V 148.37 h -31.17 v 28.48 h -0.38 c -5.91,-11.03 -14.11,-19.3 -24.63,-24.82 -10.52,-5.51 -22.07,-8.27 -34.64,-8.27 -17.19,0 -31.69,3.27 -43.49,9.81 -11.8,6.54 -21.3,14.95 -28.48,25.21 -7.19,10.26 -12.32,21.55 -15.4,33.87 -3.08,12.32 -4.62,24.38 -4.62,36.18 0,13.6 1.86,26.5 5.58,38.68 3.72,12.19 9.3,22.9 16.74,32.14 7.44,9.24 16.68,16.55 27.71,21.94 11.03,5.39 23.99,8.08 38.88,8.08 6.16,0 12.38,-0.77 18.67,-2.31 6.29,-1.54 12.19,-3.78 17.71,-6.74 5.51,-2.95 10.45,-6.67 14.82,-11.16 4.36,-4.49 7.95,-9.81 10.78,-15.97 h 0.76 v 13.08 c 0,11.29 -1.09,21.55 -3.27,30.79 -2.18,9.24 -5.71,17.13 -10.58,23.67 -4.88,6.54 -11.04,11.67 -18.47,15.4 -7.44,3.72 -16.55,5.58 -27.32,5.58 -5.39,0 -11.04,-0.58 -16.93,-1.73 -2.13,-0.42 -4.2,-0.93 -6.21,-1.53 -2.19,-0.77 -4.36,-1.56 -6.51,-2.36 -0.2,-0.08 -0.4,-0.17 -0.6,-0.26 v 0.04 C 236.63,364.58 181,310.91 181,250 181,152.85 322.52,74.1 497.1,74.1 c 97.25,0 184.45,22.15 242.44,60.59 C 676.24,70.28 562.76,25.02 433,25 234.28,24.96 73.17,125.67 73.15,249.94 73.14,334.76 148.2,408.63 259.05,447 c 88.91,3.04 134.04,-13.46 160.62,-43.27 z m -13.42,-132.2 c -2.18,9.24 -5.58,17.51 -10.2,24.82 -4.62,7.31 -10.71,13.22 -18.28,17.7 -7.57,4.49 -16.74,6.74 -27.52,6.74 -10.78,0 -19.76,-2.24 -26.94,-6.74 -7.19,-4.48 -12.96,-10.39 -17.32,-17.7 -4.37,-7.31 -7.44,-15.45 -9.24,-24.44 -1.8,-8.98 -2.69,-17.96 -2.69,-26.94 0,-9.49 1.09,-18.6 3.27,-27.33 2.18,-8.72 5.64,-16.42 10.39,-23.09 4.74,-6.67 10.84,-11.99 18.28,-15.97 7.44,-3.98 16.42,-5.97 26.94,-5.97 10.26,0 18.98,2.06 26.17,6.16 7.18,4.11 13.02,9.56 17.51,16.36 4.49,6.8 7.76,14.43 9.81,22.9 2.05,8.47 3.08,17.07 3.08,25.79 0.01,9.23 -1.08,18.47 -3.26,27.71 z"
             id="path2"
             inkscape:connector-curvature="0"
             style="fill:#ffffff" />
          <path
             d="m 434.85,422.49 c -18.85,17.11 -52.53,36.65 -98.4,44.32 30.71,5.34 63.07,8.19 96.49,8.2 129.24,0.03 242.42,-45.09 305.88,-109.05 -57.98,38.21 -144.83,59.95 -241.73,59.95 -23.01,-0.01 -40.62,-0.82 -62.24,-3.42 z"
             id="path4"
             inkscape:connector-curvature="0"
             style="fill:#ffffff" />
        </g>
        <g
           id="g16">
          <g
             id="g10">
            <path
               d="M 633.84,347.91 H 586.88 V 189.7 h -58.92 v -40.23 h 164.81 v 40.23 h -58.92 v 158.21 z"
               id="path8"
               inkscape:connector-curvature="0"
               style="fill:#ffffff" />
          </g>
          <g
             id="g14">
            <path
               d="M 764.17,347.91 H 717.2 V 149.47 h 144.99 v 40.23 h -98.02 v 37.13 h 85.8 v 40.23 h -85.8 z"
               id="path12"
               inkscape:connector-curvature="0"
               style="fill:#ffffff" />
          </g>
        </g>
        <path
           d="m 469.55,100.03 h 32.71 v 247.31 h -32.71 z"
           id="path18-9"
           inkscape:connector-curvature="0"
           style="fill:#ffffff" />
      </g>
      <g
         id="TM_2_"
         transform="matrix(0.0890383,0,0,0.0890383,296.25239,236.154)">
        <path
           d="m 902.78,155.29 h -7.35 v 19.11 h -6.42 v -19.11 h -7.35 v -5.52 h 21.11 z"
           id="path22-3"
           inkscape:connector-curvature="0"
           style="fill:#ffffff" />
        <path
           d="m 905.65,149.77 h 9.45 l 4.24,16.42 h 0.07 l 4.24,-16.42 h 9.45 v 24.63 h -6.04 V 155.7 H 927 l -5.17,18.7 h -4.9 l -5.18,-18.7 h -0.07 v 18.7 h -6.04 v -24.63 z"
           id="path24-1"
           inkscape:connector-curvature="0"
           style="fill:#ffffff" />
      </g>
    </g>
  </g>
</svg>
