<?xml version="1.0" encoding="UTF-8" standalone="no"?>
<!-- Created with Inkscape (http://www.inkscape.org/) -->

<svg
   xmlns:dc="http://purl.org/dc/elements/1.1/"
   xmlns:cc="http://creativecommons.org/ns#"
   xmlns:rdf="http://www.w3.org/1999/02/22-rdf-syntax-ns#"
   xmlns:svg="http://www.w3.org/2000/svg"
   xmlns="http://www.w3.org/2000/svg"
   xmlns:sodipodi="http://sodipodi.sourceforge.net/DTD/sodipodi-0.dtd"
   xmlns:inkscape="http://www.inkscape.org/namespaces/inkscape"
   height="30.923765"
   id="svg5164"
   inkscape:version="0.92.2 5c3e80d, 2017-08-06"
   sodipodi:docname="vulkan.svg"
   version="1.1"
   viewBox="0 0 30.658571 8.1819127"
   width="115.87492">
  <defs
     id="defs5158" />
  <sodipodi:namedview
     bordercolor="#666666"
     borderopacity="1.0"
     fit-margin-bottom="16"
     fit-margin-left="16"
     fit-margin-right="16"
     fit-margin-top="16"
     id="base"
     inkscape:current-layer="vulkan"
     inkscape:cx="36.812871"
     inkscape:cy="6.3764409"
     inkscape:document-units="mm"
     inkscape:pageopacity="0.0"
     inkscape:pageshadow="2"
     inkscape:window-height="1051"
     inkscape:window-maximized="1"
     inkscape:window-width="1920"
     inkscape:window-x="0"
     inkscape:window-y="0"
     inkscape:zoom="3.959798"
     pagecolor="#ffffff"
     showgrid="false"
     units="px" />
  <metadata
     id="metadata5161">
    <rdf:RDF>
      <cc:Work
         rdf:about="">
        <dc:format>image/svg+xml</dc:format>
        <dc:type
           rdf:resource="http://purl.org/dc/dcmitype/StillImage" />
        <dc:title />
      </cc:Work>
    </rdf:RDF>
  </metadata>
  <g
     id="vulkan"
     inkscape:groupmode="layer"
     inkscape:label="vulkan"
     style="display:inline"
     transform="translate(-2.2697029,-4.573736)">
    <g
       id="g12"
       transform="matrix(0.00275662,0,0,-0.00275662,2.2697008,12.755649)">
      <path
         d="m 6217.51,37.1484 h -405.74 c 0,0 0,989.7516 0,1296.6316 129.59,-72.2 300.94,-205.45 405.74,-333.24 V 37.1484"
         id="path14"
         inkscape:connector-curvature="0"
         style="fill:#ffffff;fill-opacity:1;fill-rule:nonzero;stroke:none" />
      <path
         d="M 2794.1,37.1484 H 2288.33 L 1628.24,2077.5 h 460.07 L 2542.68,642.961 h 5.72 L 3008.44,2077.5 h 462.94 L 2794.1,37.1484"
         id="path16"
         inkscape:connector-curvature="0"
         style="fill:#ffffff;fill-opacity:1;fill-rule:nonzero;stroke:none" />
      <path
         d="M 4831.69,37.1484 H 4445.84 V 242.891 h -8.55 C 4385.82,157.129 4319.17,95.1992 4237.23,57.1016 4155.29,19 4071.51,0 3985.75,0 c -108.58,0 -197.64,14.2813 -267.16,42.832 -69.51,28.5391 -124.31,69.066 -164.27,121.438 -40.05,52.429 -68.16,116.21 -84.4,191.472 -16.13,75.227 -24.23,158.578 -24.23,250.02 v 908.758 h 405.76 V 680.102 c 0,-121.942 19.04,-212.883 57.15,-272.891 38.09,-60.07 105.7,-90.039 202.92,-90.039 110.48,0 190.52,32.816 240.01,98.578 49.58,65.75 74.3,173.871 74.3,324.371 v 774.399 h 405.86 V 37.1484"
         id="path18"
         inkscape:connector-curvature="0"
         style="fill:#ffffff;fill-opacity:1;fill-rule:nonzero;stroke:none" />
      <path
         d="m 6285,925.852 -1.02,57.207 511.51,531.461 h 480.15 L 6718.39,971.539 7338.47,37.1484 H 6846.9 L 6285,925.852"
         id="path20"
         inkscape:connector-curvature="0"
         style="fill:#ffffff;fill-opacity:1;fill-rule:nonzero;stroke:none" />
      <path
         d="m 8350.07,760.121 c -17.2,-15.281 -38.61,-27.133 -64.34,-35.672 -25.69,-8.648 -53.32,-15.801 -82.9,-21.539 -29.5,-5.668 -60.46,-10.449 -92.82,-14.262 -32.37,-3.828 -64.8,-8.546 -97.17,-14.277 -30.47,-5.672 -60.49,-13.379 -90.02,-22.812 -29.52,-9.547 -55.26,-22.43 -77.17,-38.618 -21.87,-16.179 -39.51,-36.691 -52.89,-61.41 -13.31,-24.793 -20,-56.199 -20,-94.312 0,-36.18 6.69,-66.707 20,-91.418 13.38,-24.789 31.49,-44.352 54.35,-58.621 22.86,-14.289 49.5,-24.282 79.97,-30.02 30.51,-5.672 61.91,-8.519 94.3,-8.519 80.03,0 141.95,13.308 185.79,39.941 43.76,26.699 76.26,58.609 97.11,95.77 20.94,37.078 33.87,74.75 38.54,112.839 4.85,38.098 7.14,68.618 7.25,91.438 z m -937.36,300.049 c 5.72,95.24 29.62,174.31 71.53,237.21 41.87,62.88 95.21,113.35 159.95,151.43 64.79,38.12 137.68,65.26 218.65,81.44 80.92,16.18 162.41,24.28 244.3,24.28 74.28,0 149.54,-5.22 225.73,-15.69 76.26,-10.51 145.71,-30.95 208.6,-61.46 62.84,-30.52 114.32,-72.9 154.38,-127.13 39.96,-54.34 59.96,-126.21 59.96,-215.8 V 365.801 c 0,-66.711 3.83,-130.563 11.41,-191.469 7.64,-61.031 20.97,-106.7226 40.08,-137.1836 h -411.53 c -7.59,22.8204 -13.77,46.1914 -18.6,70.0236 -4.73,23.828 -8.1,48.047 -9.96,72.879 C 8302.42,113.301 8226.15,66.6484 8138.54,39.9609 8050.93,13.3203 7961.37,0 7869.97,0 c -70.46,0 -136.26,8.60156 -197.13,25.6914 -61.02,17.1406 -114.36,43.8399 -160.04,80.0196 -45.76,36.199 -81.56,81.93 -107.22,137.18 -25.69,55.238 -38.56,120.941 -38.56,197.129 0,83.851 14.79,152.921 44.28,207.21 29.57,54.282 67.62,97.61 114.36,130.032 46.65,32.367 99.97,56.707 160,72.886 59.96,16.184 120.48,29.063 181.45,38.614 60.98,9.437 121.01,17.136 180.07,22.82 59.05,5.727 111.38,14.27 157.12,25.688 45.75,11.449 81.93,28.14 108.57,50.07 26.75,21.85 39.06,53.78 37.2,95.7 0,43.84 -7.25,78.61 -21.53,104.3 -14.25,25.68 -33.26,45.68 -57.08,59.97 -23.83,14.32 -51.43,23.83 -82.9,28.59 -31.46,4.79 -65.19,7.21 -101.44,7.21 -80.02,0 -142.91,-17.15 -188.58,-51.48 -45.7,-34.28 -72.4,-91.44 -80.03,-171.46 h -405.8"
         id="path22"
         inkscape:connector-curvature="0"
         style="fill:#ffffff;fill-opacity:1;fill-rule:nonzero;stroke:none" />
      <path
         d="m 9018.7,1514.52 h 385.86 v -205.75 h 8.54 c 51.42,85.72 118.12,148.09 200,187.14 81.94,39.12 165.79,58.62 251.42,58.62 108.69,0 197.68,-14.78 267.28,-44.28 69.5,-29.57 124.2,-70.54 164.3,-122.9 40,-52.38 68,-116.21 84.3,-191.42 16.2,-75.3 24.2,-158.64 24.2,-250.071 V 37.1484 H 9998.9 V 871.57 c 0,121.95 -19.11,212.93 -57.1,272.89 -38.16,60.02 -105.81,90.02 -202.99,90.02 -110.48,0 -190.44,-32.87 -240.01,-98.63 -49.56,-65.62 -74.29,-173.748 -74.29,-324.248 V 37.1484 H 9018.7 V 1514.52"
         id="path24"
         inkscape:connector-curvature="0"
         style="fill:#ffffff;fill-opacity:1;fill-rule:nonzero;stroke:none" />
      <path
         d="M 5100.21,1769.42 V 37.1484 h 405.83 V 1545.65 c -130.2,79.86 -265.86,154.72 -405.83,223.77"
         id="path26"
         inkscape:connector-curvature="0"
         style="fill:#ffffff;fill-opacity:1;fill-rule:nonzero;stroke:none" />
      <path
         d="M 960.895,1695.7 C 1196.07,2384.61 2602.41,2637.28 4102.37,2260.02 5002.08,2033.77 5737.24,1595.04 6217.51,1161.15 5999.56,1736.67 4943.06,2557.03 3488.4,2838.24 1843.57,3156.25 221.285,2876.74 20.543,2146.84 -124.508,1619.55 512.324,1001.83 1497.12,579.461 1054.63,937.539 839.449,1339.97 960.895,1695.7"
         id="path28"
         inkscape:connector-curvature="0"
         style="fill:#ffffff;fill-opacity:1;fill-rule:nonzero;stroke:none" />
      <path
         d="m 6218.18,1411.57 v 665.93 h -405.86 v -202.2 c 173.04,-154.66 310.33,-312 405.86,-463.73"
         id="path30"
         inkscape:connector-curvature="0"
         style="fill:#ffffff;fill-opacity:1;fill-rule:nonzero;stroke:none" />
      <path
         d="m 10867.3,260.172 h 23.7 c 27.7,0 50.1,9.238 50.1,31.648 0,19.789 -14.5,32.969 -46.1,32.969 -13.2,0 -22.4,-1.32 -27.7,-2.641 z m -1.3,-122.633 h -50.1 v 216.262 c 19.7,3.961 47.4,6.59 83,6.59 40.9,0 59.4,-6.59 75.2,-15.832 11.9,-9.219 21.1,-26.36 21.1,-47.469 0,-23.731 -18.5,-42.192 -44.8,-50.098 v -2.64 c 21.1,-7.911 32.9,-23.731 39.5,-52.743 6.6,-32.968 10.6,-46.16 15.9,-54.07 h -54.1 c -6.6,7.91 -10.6,27.691 -17.2,52.75 -3.9,23.731 -17.1,34.281 -44.8,34.281 h -23.7 z m -133.2,113.402 c 0,-96.261 71.2,-172.7418 168.8,-172.7418 94.9,0 164.8,76.4808 164.8,171.4218 0,96.27 -69.9,174.07 -166.1,174.07 -96.3,0 -167.5,-77.8 -167.5,-172.75 z m 389,0 c 0,-122.632 -96.3,-218.8902 -221.5,-218.8902 -124,0 -222.9,96.2582 -222.9,218.8902 0,120 98.9,216.258 222.9,216.258 125.2,0 221.5,-96.258 221.5,-216.258"
         id="path32"
         inkscape:connector-curvature="0"
         style="fill:#ffffff;fill-opacity:1;fill-rule:nonzero;stroke:none" />
    </g>
  </g>
</svg>
